<?xml version="1.0" encoding="utf-8" standalone="no"?>
<!DOCTYPE svg PUBLIC "-//W3C//DTD SVG 1.1//EN"
  "http://www.w3.org/Graphics/SVG/1.1/DTD/svg11.dtd">
<svg xmlns:xlink="http://www.w3.org/1999/xlink" width="460.8pt" height="345.6pt" viewBox="0 0 460.8 345.6" xmlns="http://www.w3.org/2000/svg" version="1.1">
 <metadata>
  <rdf:RDF xmlns:dc="http://purl.org/dc/elements/1.1/" xmlns:cc="http://creativecommons.org/ns#" xmlns:rdf="http://www.w3.org/1999/02/22-rdf-syntax-ns#">
   <cc:Work>
    <dc:type rdf:resource="http://purl.org/dc/dcmitype/StillImage"/>
    <dc:date>2023-02-27T00:38:43.810848</dc:date>
    <dc:format>image/svg+xml</dc:format>
    <dc:creator>
     <cc:Agent>
      <dc:title>Matplotlib v3.5.2, https://matplotlib.org/</dc:title>
     </cc:Agent>
    </dc:creator>
   </cc:Work>
  </rdf:RDF>
 </metadata>
 <defs>
  <style type="text/css">*{stroke-linejoin: round; stroke-linecap: butt}</style>
 </defs>
 <g id="figure_1">
  <g id="patch_1">
   <path d="M 0 345.6 
L 460.8 345.6 
L 460.8 0 
L 0 0 
z
" style="fill: #ffffff"/>
  </g>
  <g id="axes_1">
   <g id="patch_2">
    <path d="M 57.6 307.584 
L 414.72 307.584 
L 414.72 41.472 
L 57.6 41.472 
z
" style="fill: #ffffff"/>
   </g>
   <g id="PolyCollection_1">
    <defs>
     <path id="m9a53b6f544" d="M 59.3856 -38.016 
L 59.3856 -38.016 
L 61.1712 -38.016 
L 62.9568 -38.016 
L 64.7424 -38.016 
L 66.528 -38.016 
L 68.3136 -38.016 
L 70.0992 -38.016 
L 71.8848 -38.016 
L 73.6704 -38.016 
L 75.456 -38.016 
L 77.2416 -38.016 
L 79.0272 -38.016 
L 80.8128 -38.016 
L 82.5984 -38.016 
L 84.384 -38.016 
L 86.1696 -38.016 
L 87.9552 -38.016 
L 89.7408 -38.016 
L 91.5264 -38.016 
L 93.312 -38.016 
L 95.0976 -38.016 
L 96.8832 -38.016 
L 98.6688 -38.016 
L 100.4544 -11.4048 
L 102.24 -38.016 
L 104.0256 -38.016 
L 105.8112 -38.016 
L 107.5968 -38.016 
L 109.3824 -38.016 
L 111.168 -38.016 
L 112.9536 -38.016 
L 114.7392 -38.016 
L 116.5248 -11.4048 
L 118.3104 -11.4048 
L 120.096 -38.016 
L 121.8816 -38.016 
L 123.6672 -38.016 
L 125.4528 -38.016 
L 127.2384 -38.016 
L 129.024 -11.4048 
L 130.8096 -38.016 
L 132.5952 -38.016 
L 134.3808 -11.4048 
L 136.1664 -38.016 
L 137.952 -20.2752 
L 139.7376 -38.016 
L 141.5232 -38.016 
L 143.3088 -38.016 
L 145.0944 -11.4048 
L 146.88 -20.2752 
L 148.6656 -38.016 
L 150.4512 -11.4048 
L 152.2368 -38.016 
L 154.0224 -11.4048 
L 155.808 -38.016 
L 157.5936 -38.016 
L 159.3792 -38.016 
L 161.1648 -38.016 
L 162.9504 -11.4048 
L 164.736 -38.016 
L 166.5216 -38.016 
L 168.3072 -38.016 
L 170.0928 -38.016 
L 171.8784 -11.4048 
L 173.664 -38.016 
L 175.4496 -57.548985 
L 177.2352 -38.016 
L 179.0208 -38.016 
L 180.8064 -11.4048 
L 182.592 -11.4048 
L 184.3776 -38.016 
L 186.1632 -38.016 
L 187.9488 -38.016 
L 189.7344 -11.4048 
L 191.52 -38.016 
L 193.3056 -36.551041 
L 195.0912 -38.016 
L 196.8768 -38.016 
L 198.6624 -38.016 
L 200.448 -11.4048 
L 202.2336 -38.016 
L 204.0192 -11.4048 
L 205.8048 -38.016 
L 207.5904 -11.4048 
L 209.376 -38.016 
L 211.1616 -11.4048 
L 212.9472 -11.4048 
L 214.7328 -38.016 
L 216.5184 -38.016 
L 218.304 -11.4048 
L 220.0896 -11.4048 
L 221.8752 -11.4048 
L 223.6608 -11.4048 
L 225.4464 -20.2752 
L 227.232 -11.4048 
L 229.0176 -20.2752 
L 230.8032 -38.016 
L 232.5888 -38.016 
L 234.3744 -38.016 
L 236.16 -11.4048 
L 237.9456 -38.016 
L 239.7312 -38.016 
L 241.5168 -38.016 
L 243.3024 -11.4048 
L 245.088 -11.4048 
L 246.8736 -38.016 
L 248.6592 -38.016 
L 250.4448 -11.4048 
L 252.2304 -11.4048 
L 254.016 -38.016 
L 255.8016 -38.016 
L 257.5872 -20.2752 
L 259.3728 -11.4048 
L 261.1584 -38.016 
L 262.944 -38.016 
L 264.7296 -38.016 
L 266.5152 -11.4048 
L 268.3008 -11.4048 
L 270.0864 -11.4048 
L 271.872 -11.4048 
L 273.6576 -38.016 
L 275.4432 -38.016 
L 277.2288 -11.4048 
L 279.0144 -38.016 
L 280.8 -38.016 
L 282.5856 -11.4048 
L 284.3712 -20.2752 
L 286.1568 -20.2752 
L 287.9424 -38.016 
L 289.728 -38.016 
L 291.5136 -20.2752 
L 293.2992 -11.4048 
L 295.0848 -38.016 
L 296.8704 -38.016 
L 298.656 -11.4048 
L 300.4416 -38.016 
L 302.2272 -38.016 
L 304.0128 -20.2752 
L 305.7984 -11.4048 
L 307.584 -38.016 
L 309.3696 -11.4048 
L 311.1552 -11.4048 
L 312.9408 -11.4048 
L 314.7264 -38.016 
L 316.512 -11.4048 
L 318.2976 -38.016 
L 320.0832 -38.016 
L 321.8688 -11.4048 
L 323.6544 -11.4048 
L 325.44 -11.4048 
L 327.2256 -11.4048 
L 329.0112 -11.4048 
L 330.7968 -11.4048 
L 332.5824 -38.016 
L 334.368 -36.551041 
L 336.1536 -20.2752 
L 337.9392 -38.016 
L 339.7248 -38.016 
L 341.5104 -11.4048 
L 343.296 -11.4048 
L 345.0816 -11.4048 
L 346.8672 -11.4048 
L 348.6528 -11.4048 
L 350.4384 -11.4048 
L 352.224 -38.016 
L 354.0096 -38.016 
L 355.7952 -38.016 
L 357.5808 -11.4048 
L 359.3664 -38.016 
L 361.152 -38.016 
L 362.9376 -38.016 
L 364.7232 -11.4048 
L 366.5088 -38.016 
L 368.2944 -38.016 
L 370.08 -11.4048 
L 371.8656 -38.016 
L 373.6512 -11.4048 
L 375.4368 -11.4048 
L 377.2224 -38.016 
L 379.008 -11.4048 
L 380.7936 -11.4048 
L 382.5792 -11.4048 
L 384.3648 -36.551041 
L 386.1504 -20.2752 
L 387.936 -38.016 
L 389.7216 -11.4048 
L 391.5072 -38.016 
L 393.2928 -38.016 
L 395.0784 -11.4048 
L 396.864 -11.4048 
L 398.6496 -20.2752 
L 400.4352 -38.016 
L 402.2208 -11.4048 
L 404.0064 -11.4048 
L 405.792 -38.016 
L 407.5776 -38.016 
L 409.3632 -8.448 
L 411.1488 -38.016 
L 412.9344 -38.016 
L 414.72 -38.016 
L 414.72 -38.016 
L 414.72 -38.016 
L 412.9344 -38.016 
L 411.1488 -38.016 
L 409.3632 -126.72 
L 407.5776 -38.016 
L 405.792 -38.016 
L 404.0064 -117.8496 
L 402.2208 -117.8496 
L 400.4352 -38.016 
L 398.6496 -162.2016 
L 396.864 -117.8496 
L 395.0784 -117.8496 
L 393.2928 -38.016 
L 391.5072 -38.016 
L 389.7216 -117.8496 
L 387.936 -38.016 
L 386.1504 -162.2016 
L 384.3648 -199.148159 
L 382.5792 -117.8496 
L 380.7936 -117.8496 
L 379.008 -117.8496 
L 377.2224 -38.016 
L 375.4368 -117.8496 
L 373.6512 -117.8496 
L 371.8656 -38.016 
L 370.08 -117.8496 
L 368.2944 -38.016 
L 366.5088 -38.016 
L 364.7232 -117.8496 
L 362.9376 -38.016 
L 361.152 -38.016 
L 359.3664 -38.016 
L 357.5808 -117.8496 
L 355.7952 -38.016 
L 354.0096 -38.016 
L 352.224 -38.016 
L 350.4384 -117.8496 
L 348.6528 -117.8496 
L 346.8672 -117.8496 
L 345.0816 -117.8496 
L 343.296 -117.8496 
L 341.5104 -117.8496 
L 339.7248 -38.016 
L 337.9392 -38.016 
L 336.1536 -162.2016 
L 334.368 -199.148159 
L 332.5824 -38.016 
L 330.7968 -117.8496 
L 329.0112 -117.8496 
L 327.2256 -117.8496 
L 325.44 -117.8496 
L 323.6544 -117.8496 
L 321.8688 -117.8496 
L 320.0832 -38.016 
L 318.2976 -38.016 
L 316.512 -117.8496 
L 314.7264 -38.016 
L 312.9408 -117.8496 
L 311.1552 -117.8496 
L 309.3696 -117.8496 
L 307.584 -38.016 
L 305.7984 -117.8496 
L 304.0128 -162.2016 
L 302.2272 -38.016 
L 300.4416 -38.016 
L 298.656 -117.8496 
L 296.8704 -38.016 
L 295.0848 -38.016 
L 293.2992 -117.8496 
L 291.5136 -162.2016 
L 289.728 -38.016 
L 287.9424 -38.016 
L 286.1568 -162.2016 
L 284.3712 -162.2016 
L 282.5856 -117.8496 
L 280.8 -38.016 
L 279.0144 -38.016 
L 277.2288 -117.8496 
L 275.4432 -38.016 
L 273.6576 -38.016 
L 271.872 -117.8496 
L 270.0864 -117.8496 
L 268.3008 -117.8496 
L 266.5152 -117.8496 
L 264.7296 -38.016 
L 262.944 -38.016 
L 261.1584 -38.016 
L 259.3728 -117.8496 
L 257.5872 -162.2016 
L 255.8016 -38.016 
L 254.016 -38.016 
L 252.2304 -117.8496 
L 250.4448 -117.8496 
L 248.6592 -38.016 
L 246.8736 -38.016 
L 245.088 -117.8496 
L 243.3024 -117.8496 
L 241.5168 -38.016 
L 239.7312 -38.016 
L 237.9456 -38.016 
L 236.16 -117.8496 
L 234.3744 -38.016 
L 232.5888 -38.016 
L 230.8032 -38.016 
L 229.0176 -162.2016 
L 227.232 -117.8496 
L 225.4464 -162.2016 
L 223.6608 -117.8496 
L 221.8752 -117.8496 
L 220.0896 -117.8496 
L 218.304 -117.8496 
L 216.5184 -38.016 
L 214.7328 -38.016 
L 212.9472 -117.8496 
L 211.1616 -117.8496 
L 209.376 -38.016 
L 207.5904 -117.8496 
L 205.8048 -38.016 
L 204.0192 -117.8496 
L 202.2336 -38.016 
L 200.448 -117.8496 
L 198.6624 -38.016 
L 196.8768 -38.016 
L 195.0912 -38.016 
L 193.3056 -199.148159 
L 191.52 -38.016 
L 189.7344 -117.8496 
L 187.9488 -38.016 
L 186.1632 -38.016 
L 184.3776 -38.016 
L 182.592 -117.8496 
L 180.8064 -117.8496 
L 179.0208 -38.016 
L 177.2352 -38.016 
L 175.4496 -231.372615 
L 173.664 -38.016 
L 171.8784 -117.8496 
L 170.0928 -38.016 
L 168.3072 -38.016 
L 166.5216 -38.016 
L 164.736 -38.016 
L 162.9504 -117.8496 
L 161.1648 -38.016 
L 159.3792 -38.016 
L 157.5936 -38.016 
L 155.808 -38.016 
L 154.0224 -117.8496 
L 152.2368 -38.016 
L 150.4512 -117.8496 
L 148.6656 -38.016 
L 146.88 -162.2016 
L 145.0944 -117.8496 
L 143.3088 -38.016 
L 141.5232 -38.016 
L 139.7376 -38.016 
L 137.952 -162.2016 
L 136.1664 -38.016 
L 134.3808 -117.8496 
L 132.5952 -38.016 
L 130.8096 -38.016 
L 129.024 -117.8496 
L 127.2384 -38.016 
L 125.4528 -38.016 
L 123.6672 -38.016 
L 121.8816 -38.016 
L 120.096 -38.016 
L 118.3104 -117.8496 
L 116.5248 -117.8496 
L 114.7392 -38.016 
L 112.9536 -38.016 
L 111.168 -38.016 
L 109.3824 -38.016 
L 107.5968 -38.016 
L 105.8112 -38.016 
L 104.0256 -38.016 
L 102.24 -38.016 
L 100.4544 -117.8496 
L 98.6688 -38.016 
L 96.8832 -38.016 
L 95.0976 -38.016 
L 93.312 -38.016 
L 91.5264 -38.016 
L 89.7408 -38.016 
L 87.9552 -38.016 
L 86.1696 -38.016 
L 84.384 -38.016 
L 82.5984 -38.016 
L 80.8128 -38.016 
L 79.0272 -38.016 
L 77.2416 -38.016 
L 75.456 -38.016 
L 73.6704 -38.016 
L 71.8848 -38.016 
L 70.0992 -38.016 
L 68.3136 -38.016 
L 66.528 -38.016 
L 64.7424 -38.016 
L 62.9568 -38.016 
L 61.1712 -38.016 
L 59.3856 -38.016 
z
" style="stroke: #1f77b4; stroke-opacity: 0.2"/>
    </defs>
    <g clip-path="url(#p23929b1bef)">
     <use xlink:href="#m9a53b6f544" x="0" y="345.6" style="fill: #1f77b4; fill-opacity: 0.2; stroke: #1f77b4; stroke-opacity: 0.2"/>
    </g>
   </g>
   <g id="PolyCollection_2">
    <defs>
     <path id="mac4d491229" d="M 59.3856 -38.016 
L 59.3856 -38.016 
L 61.1712 -38.016 
L 62.9568 -38.016 
L 64.7424 -38.016 
L 66.528 -38.016 
L 68.3136 -38.016 
L 70.0992 -38.016 
L 71.8848 -38.016 
L 73.6704 -38.016 
L 75.456 -38.016 
L 77.2416 -38.016 
L 79.0272 -38.016 
L 80.8128 -38.016 
L 82.5984 -38.016 
L 84.384 -38.016 
L 86.1696 -11.4048 
L 87.9552 -38.016 
L 89.7408 -38.016 
L 91.5264 -38.016 
L 93.312 -38.016 
L 95.0976 -38.016 
L 96.8832 -38.016 
L 98.6688 -38.016 
L 100.4544 -38.016 
L 102.24 -38.016 
L 104.0256 -38.016 
L 105.8112 -38.016 
L 107.5968 -38.016 
L 109.3824 -38.016 
L 111.168 -38.016 
L 112.9536 -38.016 
L 114.7392 -38.016 
L 116.5248 -38.016 
L 118.3104 -38.016 
L 120.096 -38.016 
L 121.8816 -38.016 
L 123.6672 -38.016 
L 125.4528 -38.016 
L 127.2384 -11.4048 
L 129.024 -38.016 
L 130.8096 -38.016 
L 132.5952 -11.4048 
L 134.3808 -38.016 
L 136.1664 -38.016 
L 137.952 -38.016 
L 139.7376 -38.016 
L 141.5232 -38.016 
L 143.3088 -11.4048 
L 145.0944 -38.016 
L 146.88 -38.016 
L 148.6656 -38.016 
L 150.4512 -38.016 
L 152.2368 -38.016 
L 154.0224 -38.016 
L 155.808 -38.016 
L 157.5936 -38.016 
L 159.3792 -38.016 
L 161.1648 -38.016 
L 162.9504 -38.016 
L 164.736 -38.016 
L 166.5216 -38.016 
L 168.3072 -38.016 
L 170.0928 -38.016 
L 171.8784 -38.016 
L 173.664 -38.016 
L 175.4496 -38.016 
L 177.2352 -38.016 
L 179.0208 -38.016 
L 180.8064 -38.016 
L 182.592 -38.016 
L 184.3776 -38.016 
L 186.1632 -38.016 
L 187.9488 -38.016 
L 189.7344 -38.016 
L 191.52 -38.016 
L 193.3056 -38.016 
L 195.0912 -38.016 
L 196.8768 -38.016 
L 198.6624 -38.016 
L 200.448 -38.016 
L 202.2336 -38.016 
L 204.0192 -38.016 
L 205.8048 -38.016 
L 207.5904 -38.016 
L 209.376 -38.016 
L 211.1616 -38.016 
L 212.9472 -38.016 
L 214.7328 -38.016 
L 216.5184 -38.016 
L 218.304 -38.016 
L 220.0896 -38.016 
L 221.8752 -38.016 
L 223.6608 -38.016 
L 225.4464 -38.016 
L 227.232 -38.016 
L 229.0176 -38.016 
L 230.8032 -38.016 
L 232.5888 -38.016 
L 234.3744 -38.016 
L 236.16 -38.016 
L 237.9456 -38.016 
L 239.7312 -38.016 
L 241.5168 -38.016 
L 243.3024 -38.016 
L 245.088 -38.016 
L 246.8736 -38.016 
L 248.6592 -38.016 
L 250.4448 -38.016 
L 252.2304 -38.016 
L 254.016 -38.016 
L 255.8016 -38.016 
L 257.5872 -38.016 
L 259.3728 -38.016 
L 261.1584 -38.016 
L 262.944 -38.016 
L 264.7296 -38.016 
L 266.5152 -38.016 
L 268.3008 -38.016 
L 270.0864 -38.016 
L 271.872 -8.448 
L 273.6576 -38.016 
L 275.4432 -38.016 
L 277.2288 -38.016 
L 279.0144 -38.016 
L 280.8 -38.016 
L 282.5856 -38.016 
L 284.3712 -38.016 
L 286.1568 -38.016 
L 287.9424 -38.016 
L 289.728 -8.448 
L 291.5136 -38.016 
L 293.2992 -38.016 
L 295.0848 -38.016 
L 296.8704 -38.016 
L 298.656 -38.016 
L 300.4416 -38.016 
L 302.2272 -38.016 
L 304.0128 -38.016 
L 305.7984 -38.016 
L 307.584 -38.016 
L 309.3696 -38.016 
L 311.1552 -38.016 
L 312.9408 -38.016 
L 314.7264 -38.016 
L 316.512 -38.016 
L 318.2976 -38.016 
L 320.0832 -38.016 
L 321.8688 -38.016 
L 323.6544 -38.016 
L 325.44 -38.016 
L 327.2256 -38.016 
L 329.0112 -38.016 
L 330.7968 -38.016 
L 332.5824 -38.016 
L 334.368 -38.016 
L 336.1536 -38.016 
L 337.9392 -38.016 
L 339.7248 -38.016 
L 341.5104 -38.016 
L 343.296 -38.016 
L 345.0816 -38.016 
L 346.8672 -38.016 
L 348.6528 -38.016 
L 350.4384 -38.016 
L 352.224 -38.016 
L 354.0096 -38.016 
L 355.7952 -38.016 
L 357.5808 -38.016 
L 359.3664 -38.016 
L 361.152 -38.016 
L 362.9376 -38.016 
L 364.7232 -38.016 
L 366.5088 -38.016 
L 368.2944 -38.016 
L 370.08 -38.016 
L 371.8656 -38.016 
L 373.6512 -38.016 
L 375.4368 -38.016 
L 377.2224 -38.016 
L 379.008 -38.016 
L 380.7936 -38.016 
L 382.5792 -38.016 
L 384.3648 -38.016 
L 386.1504 -8.448 
L 387.936 -38.016 
L 389.7216 -38.016 
L 391.5072 -38.016 
L 393.2928 -38.016 
L 395.0784 -38.016 
L 396.864 -38.016 
L 398.6496 -38.016 
L 400.4352 -38.016 
L 402.2208 -38.016 
L 404.0064 -38.016 
L 405.792 -38.016 
L 407.5776 -38.016 
L 409.3632 -38.016 
L 411.1488 -38.016 
L 412.9344 -38.016 
L 414.72 -38.016 
L 414.72 -38.016 
L 414.72 -38.016 
L 412.9344 -38.016 
L 411.1488 -38.016 
L 409.3632 -38.016 
L 407.5776 -38.016 
L 405.792 -38.016 
L 404.0064 -38.016 
L 402.2208 -38.016 
L 400.4352 -38.016 
L 398.6496 -38.016 
L 396.864 -38.016 
L 395.0784 -38.016 
L 393.2928 -38.016 
L 391.5072 -38.016 
L 389.7216 -38.016 
L 387.936 -38.016 
L 386.1504 -126.72 
L 384.3648 -38.016 
L 382.5792 -38.016 
L 380.7936 -38.016 
L 379.008 -38.016 
L 377.2224 -38.016 
L 375.4368 -38.016 
L 373.6512 -38.016 
L 371.8656 -38.016 
L 370.08 -38.016 
L 368.2944 -38.016 
L 366.5088 -38.016 
L 364.7232 -38.016 
L 362.9376 -38.016 
L 361.152 -38.016 
L 359.3664 -38.016 
L 357.5808 -38.016 
L 355.7952 -38.016 
L 354.0096 -38.016 
L 352.224 -38.016 
L 350.4384 -38.016 
L 348.6528 -38.016 
L 346.8672 -38.016 
L 345.0816 -38.016 
L 343.296 -38.016 
L 341.5104 -38.016 
L 339.7248 -38.016 
L 337.9392 -38.016 
L 336.1536 -38.016 
L 334.368 -38.016 
L 332.5824 -38.016 
L 330.7968 -38.016 
L 329.0112 -38.016 
L 327.2256 -38.016 
L 325.44 -38.016 
L 323.6544 -38.016 
L 321.8688 -38.016 
L 320.0832 -38.016 
L 318.2976 -38.016 
L 316.512 -38.016 
L 314.7264 -38.016 
L 312.9408 -38.016 
L 311.1552 -38.016 
L 309.3696 -38.016 
L 307.584 -38.016 
L 305.7984 -38.016 
L 304.0128 -38.016 
L 302.2272 -38.016 
L 300.4416 -38.016 
L 298.656 -38.016 
L 296.8704 -38.016 
L 295.0848 -38.016 
L 293.2992 -38.016 
L 291.5136 -38.016 
L 289.728 -126.72 
L 287.9424 -38.016 
L 286.1568 -38.016 
L 284.3712 -38.016 
L 282.5856 -38.016 
L 280.8 -38.016 
L 279.0144 -38.016 
L 277.2288 -38.016 
L 275.4432 -38.016 
L 273.6576 -38.016 
L 271.872 -126.72 
L 270.0864 -38.016 
L 268.3008 -38.016 
L 266.5152 -38.016 
L 264.7296 -38.016 
L 262.944 -38.016 
L 261.1584 -38.016 
L 259.3728 -38.016 
L 257.5872 -38.016 
L 255.8016 -38.016 
L 254.016 -38.016 
L 252.2304 -38.016 
L 250.4448 -38.016 
L 248.6592 -38.016 
L 246.8736 -38.016 
L 245.088 -38.016 
L 243.3024 -38.016 
L 241.5168 -38.016 
L 239.7312 -38.016 
L 237.9456 -38.016 
L 236.16 -38.016 
L 234.3744 -38.016 
L 232.5888 -38.016 
L 230.8032 -38.016 
L 229.0176 -38.016 
L 227.232 -38.016 
L 225.4464 -38.016 
L 223.6608 -38.016 
L 221.8752 -38.016 
L 220.0896 -38.016 
L 218.304 -38.016 
L 216.5184 -38.016 
L 214.7328 -38.016 
L 212.9472 -38.016 
L 211.1616 -38.016 
L 209.376 -38.016 
L 207.5904 -38.016 
L 205.8048 -38.016 
L 204.0192 -38.016 
L 202.2336 -38.016 
L 200.448 -38.016 
L 198.6624 -38.016 
L 196.8768 -38.016 
L 195.0912 -38.016 
L 193.3056 -38.016 
L 191.52 -38.016 
L 189.7344 -38.016 
L 187.9488 -38.016 
L 186.1632 -38.016 
L 184.3776 -38.016 
L 182.592 -38.016 
L 180.8064 -38.016 
L 179.0208 -38.016 
L 177.2352 -38.016 
L 175.4496 -38.016 
L 173.664 -38.016 
L 171.8784 -38.016 
L 170.0928 -38.016 
L 168.3072 -38.016 
L 166.5216 -38.016 
L 164.736 -38.016 
L 162.9504 -38.016 
L 161.1648 -38.016 
L 159.3792 -38.016 
L 157.5936 -38.016 
L 155.808 -38.016 
L 154.0224 -38.016 
L 152.2368 -38.016 
L 150.4512 -38.016 
L 148.6656 -38.016 
L 146.88 -38.016 
L 145.0944 -38.016 
L 143.3088 -117.8496 
L 141.5232 -38.016 
L 139.7376 -38.016 
L 137.952 -38.016 
L 136.1664 -38.016 
L 134.3808 -38.016 
L 132.5952 -117.8496 
L 130.8096 -38.016 
L 129.024 -38.016 
L 127.2384 -117.8496 
L 125.4528 -38.016 
L 123.6672 -38.016 
L 121.8816 -38.016 
L 120.096 -38.016 
L 118.3104 -38.016 
L 116.5248 -38.016 
L 114.7392 -38.016 
L 112.9536 -38.016 
L 111.168 -38.016 
L 109.3824 -38.016 
L 107.5968 -38.016 
L 105.8112 -38.016 
L 104.0256 -38.016 
L 102.24 -38.016 
L 100.4544 -38.016 
L 98.6688 -38.016 
L 96.8832 -38.016 
L 95.0976 -38.016 
L 93.312 -38.016 
L 91.5264 -38.016 
L 89.7408 -38.016 
L 87.9552 -38.016 
L 86.1696 -117.8496 
L 84.384 -38.016 
L 82.5984 -38.016 
L 80.8128 -38.016 
L 79.0272 -38.016 
L 77.2416 -38.016 
L 75.456 -38.016 
L 73.6704 -38.016 
L 71.8848 -38.016 
L 70.0992 -38.016 
L 68.3136 -38.016 
L 66.528 -38.016 
L 64.7424 -38.016 
L 62.9568 -38.016 
L 61.1712 -38.016 
L 59.3856 -38.016 
z
" style="stroke: #ff7f0e; stroke-opacity: 0.2"/>
    </defs>
    <g clip-path="url(#p23929b1bef)">
     <use xlink:href="#mac4d491229" x="0" y="345.6" style="fill: #ff7f0e; fill-opacity: 0.2; stroke: #ff7f0e; stroke-opacity: 0.2"/>
    </g>
   </g>
   <g id="PolyCollection_3">
    <defs>
     <path id="m94b19b8384" d="M 59.3856 -38.016 
L 59.3856 -38.016 
L 61.1712 -38.016 
L 62.9568 -38.016 
L 64.7424 -38.016 
L 66.528 -38.016 
L 68.3136 -38.016 
L 70.0992 -38.016 
L 71.8848 -38.016 
L 73.6704 -38.016 
L 75.456 -38.016 
L 77.2416 -11.4048 
L 79.0272 -11.4048 
L 80.8128 -38.016 
L 82.5984 -38.016 
L 84.384 -38.016 
L 86.1696 -11.4048 
L 87.9552 -38.016 
L 89.7408 -38.016 
L 91.5264 -38.016 
L 93.312 -38.016 
L 95.0976 -11.4048 
L 96.8832 -38.016 
L 98.6688 -11.4048 
L 100.4544 -38.016 
L 102.24 -38.016 
L 104.0256 -11.4048 
L 105.8112 -38.016 
L 107.5968 -11.4048 
L 109.3824 -38.016 
L 111.168 -11.4048 
L 112.9536 -38.016 
L 114.7392 -20.2752 
L 116.5248 -38.016 
L 118.3104 -38.016 
L 120.096 -38.016 
L 121.8816 -38.016 
L 123.6672 -11.4048 
L 125.4528 -11.4048 
L 127.2384 -20.2752 
L 129.024 -38.016 
L 130.8096 -11.4048 
L 132.5952 -38.016 
L 134.3808 -11.4048 
L 136.1664 -38.016 
L 137.952 -11.4048 
L 139.7376 -38.016 
L 141.5232 -38.016 
L 143.3088 -38.016 
L 145.0944 -11.4048 
L 146.88 -38.016 
L 148.6656 -20.2752 
L 150.4512 -38.016 
L 152.2368 -11.4048 
L 154.0224 -38.016 
L 155.808 -11.4048 
L 157.5936 -38.016 
L 159.3792 -11.4048 
L 161.1648 -11.4048 
L 162.9504 -38.016 
L 164.736 -38.016 
L 166.5216 -20.2752 
L 168.3072 -38.016 
L 170.0928 -11.4048 
L 171.8784 -38.016 
L 173.664 -38.016 
L 175.4496 -38.016 
L 177.2352 -11.4048 
L 179.0208 -11.4048 
L 180.8064 -20.2752 
L 182.592 -20.2752 
L 184.3776 -38.016 
L 186.1632 -38.016 
L 187.9488 -38.016 
L 189.7344 -38.016 
L 191.52 -38.016 
L 193.3056 -11.4048 
L 195.0912 -38.016 
L 196.8768 -20.2752 
L 198.6624 -38.016 
L 200.448 -38.016 
L 202.2336 -38.016 
L 204.0192 -38.016 
L 205.8048 -38.016 
L 207.5904 -38.016 
L 209.376 -38.016 
L 211.1616 -38.016 
L 212.9472 -20.2752 
L 214.7328 -11.4048 
L 216.5184 -38.016 
L 218.304 -20.2752 
L 220.0896 -38.016 
L 221.8752 -11.4048 
L 223.6608 -11.4048 
L 225.4464 -11.4048 
L 227.232 -38.016 
L 229.0176 -11.4048 
L 230.8032 -38.016 
L 232.5888 -38.016 
L 234.3744 -38.016 
L 236.16 -38.016 
L 237.9456 -11.4048 
L 239.7312 -11.4048 
L 241.5168 -20.2752 
L 243.3024 -38.016 
L 245.088 -38.016 
L 246.8736 -20.2752 
L 248.6592 -11.4048 
L 250.4448 -38.016 
L 252.2304 -38.016 
L 254.016 -38.016 
L 255.8016 -38.016 
L 257.5872 -38.016 
L 259.3728 -38.016 
L 261.1584 -11.4048 
L 262.944 -20.2752 
L 264.7296 -11.4048 
L 266.5152 -38.016 
L 268.3008 -11.4048 
L 270.0864 -20.2752 
L 271.872 -38.016 
L 273.6576 -11.4048 
L 275.4432 -20.2752 
L 277.2288 -11.4048 
L 279.0144 -11.4048 
L 280.8 -38.016 
L 282.5856 -38.016 
L 284.3712 -11.4048 
L 286.1568 -11.4048 
L 287.9424 -11.4048 
L 289.728 -11.4048 
L 291.5136 -11.4048 
L 293.2992 -11.4048 
L 295.0848 -20.2752 
L 296.8704 -38.016 
L 298.656 -38.016 
L 300.4416 -38.016 
L 302.2272 -38.016 
L 304.0128 -38.016 
L 305.7984 -11.4048 
L 307.584 -20.2752 
L 309.3696 -11.4048 
L 311.1552 -11.4048 
L 312.9408 -38.016 
L 314.7264 -38.016 
L 316.512 -38.016 
L 318.2976 -11.4048 
L 320.0832 -11.4048 
L 321.8688 -20.2752 
L 323.6544 -11.4048 
L 325.44 -11.4048 
L 327.2256 -38.016 
L 329.0112 -20.2752 
L 330.7968 -11.4048 
L 332.5824 -11.4048 
L 334.368 -20.2752 
L 336.1536 -20.2752 
L 337.9392 -11.4048 
L 339.7248 -11.4048 
L 341.5104 -11.4048 
L 343.296 -20.2752 
L 345.0816 -11.4048 
L 346.8672 -20.2752 
L 348.6528 -11.4048 
L 350.4384 -20.2752 
L 352.224 -20.2752 
L 354.0096 -20.2752 
L 355.7952 -20.2752 
L 357.5808 -36.551041 
L 359.3664 -11.4048 
L 361.152 -20.2752 
L 362.9376 -11.4048 
L 364.7232 -36.551041 
L 366.5088 -20.2752 
L 368.2944 -11.4048 
L 370.08 -20.2752 
L 371.8656 -20.2752 
L 373.6512 -20.2752 
L 375.4368 -36.551041 
L 377.2224 -11.4048 
L 379.008 -20.2752 
L 380.7936 -20.2752 
L 382.5792 -11.4048 
L 384.3648 -20.2752 
L 386.1504 -20.2752 
L 387.936 -36.551041 
L 389.7216 -36.551041 
L 391.5072 -11.4048 
L 393.2928 -36.551041 
L 395.0784 -11.4048 
L 396.864 -20.2752 
L 398.6496 -11.4048 
L 400.4352 -20.2752 
L 402.2208 -36.551041 
L 404.0064 -36.551041 
L 405.792 -36.551041 
L 407.5776 -20.2752 
L 409.3632 -36.551041 
L 411.1488 -11.4048 
L 412.9344 -20.2752 
L 414.72 -20.2752 
L 414.72 -162.2016 
L 414.72 -162.2016 
L 412.9344 -162.2016 
L 411.1488 -117.8496 
L 409.3632 -199.148159 
L 407.5776 -162.2016 
L 405.792 -199.148159 
L 404.0064 -199.148159 
L 402.2208 -199.148159 
L 400.4352 -162.2016 
L 398.6496 -117.8496 
L 396.864 -162.2016 
L 395.0784 -117.8496 
L 393.2928 -199.148159 
L 391.5072 -117.8496 
L 389.7216 -199.148159 
L 387.936 -199.148159 
L 386.1504 -162.2016 
L 384.3648 -162.2016 
L 382.5792 -117.8496 
L 380.7936 -162.2016 
L 379.008 -162.2016 
L 377.2224 -117.8496 
L 375.4368 -199.148159 
L 373.6512 -162.2016 
L 371.8656 -162.2016 
L 370.08 -162.2016 
L 368.2944 -117.8496 
L 366.5088 -162.2016 
L 364.7232 -199.148159 
L 362.9376 -117.8496 
L 361.152 -162.2016 
L 359.3664 -117.8496 
L 357.5808 -199.148159 
L 355.7952 -162.2016 
L 354.0096 -162.2016 
L 352.224 -162.2016 
L 350.4384 -162.2016 
L 348.6528 -117.8496 
L 346.8672 -162.2016 
L 345.0816 -117.8496 
L 343.296 -162.2016 
L 341.5104 -117.8496 
L 339.7248 -117.8496 
L 337.9392 -117.8496 
L 336.1536 -162.2016 
L 334.368 -162.2016 
L 332.5824 -117.8496 
L 330.7968 -117.8496 
L 329.0112 -162.2016 
L 327.2256 -38.016 
L 325.44 -117.8496 
L 323.6544 -117.8496 
L 321.8688 -162.2016 
L 320.0832 -117.8496 
L 318.2976 -117.8496 
L 316.512 -38.016 
L 314.7264 -38.016 
L 312.9408 -38.016 
L 311.1552 -117.8496 
L 309.3696 -117.8496 
L 307.584 -162.2016 
L 305.7984 -117.8496 
L 304.0128 -38.016 
L 302.2272 -38.016 
L 300.4416 -38.016 
L 298.656 -38.016 
L 296.8704 -38.016 
L 295.0848 -162.2016 
L 293.2992 -117.8496 
L 291.5136 -117.8496 
L 289.728 -117.8496 
L 287.9424 -117.8496 
L 286.1568 -117.8496 
L 284.3712 -117.8496 
L 282.5856 -38.016 
L 280.8 -38.016 
L 279.0144 -117.8496 
L 277.2288 -117.8496 
L 275.4432 -162.2016 
L 273.6576 -117.8496 
L 271.872 -38.016 
L 270.0864 -162.2016 
L 268.3008 -117.8496 
L 266.5152 -38.016 
L 264.7296 -117.8496 
L 262.944 -162.2016 
L 261.1584 -117.8496 
L 259.3728 -38.016 
L 257.5872 -38.016 
L 255.8016 -38.016 
L 254.016 -38.016 
L 252.2304 -38.016 
L 250.4448 -38.016 
L 248.6592 -117.8496 
L 246.8736 -162.2016 
L 245.088 -38.016 
L 243.3024 -38.016 
L 241.5168 -162.2016 
L 239.7312 -117.8496 
L 237.9456 -117.8496 
L 236.16 -38.016 
L 234.3744 -38.016 
L 232.5888 -38.016 
L 230.8032 -38.016 
L 229.0176 -117.8496 
L 227.232 -38.016 
L 225.4464 -117.8496 
L 223.6608 -117.8496 
L 221.8752 -117.8496 
L 220.0896 -38.016 
L 218.304 -162.2016 
L 216.5184 -38.016 
L 214.7328 -117.8496 
L 212.9472 -162.2016 
L 211.1616 -38.016 
L 209.376 -38.016 
L 207.5904 -38.016 
L 205.8048 -38.016 
L 204.0192 -38.016 
L 202.2336 -38.016 
L 200.448 -38.016 
L 198.6624 -38.016 
L 196.8768 -162.2016 
L 195.0912 -38.016 
L 193.3056 -117.8496 
L 191.52 -38.016 
L 189.7344 -38.016 
L 187.9488 -38.016 
L 186.1632 -38.016 
L 184.3776 -38.016 
L 182.592 -162.2016 
L 180.8064 -162.2016 
L 179.0208 -117.8496 
L 177.2352 -117.8496 
L 175.4496 -38.016 
L 173.664 -38.016 
L 171.8784 -38.016 
L 170.0928 -117.8496 
L 168.3072 -38.016 
L 166.5216 -162.2016 
L 164.736 -38.016 
L 162.9504 -38.016 
L 161.1648 -117.8496 
L 159.3792 -117.8496 
L 157.5936 -38.016 
L 155.808 -117.8496 
L 154.0224 -38.016 
L 152.2368 -117.8496 
L 150.4512 -38.016 
L 148.6656 -162.2016 
L 146.88 -38.016 
L 145.0944 -117.8496 
L 143.3088 -38.016 
L 141.5232 -38.016 
L 139.7376 -38.016 
L 137.952 -117.8496 
L 136.1664 -38.016 
L 134.3808 -117.8496 
L 132.5952 -38.016 
L 130.8096 -117.8496 
L 129.024 -38.016 
L 127.2384 -162.2016 
L 125.4528 -117.8496 
L 123.6672 -117.8496 
L 121.8816 -38.016 
L 120.096 -38.016 
L 118.3104 -38.016 
L 116.5248 -38.016 
L 114.7392 -162.2016 
L 112.9536 -38.016 
L 111.168 -117.8496 
L 109.3824 -38.016 
L 107.5968 -117.8496 
L 105.8112 -38.016 
L 104.0256 -117.8496 
L 102.24 -38.016 
L 100.4544 -38.016 
L 98.6688 -117.8496 
L 96.8832 -38.016 
L 95.0976 -117.8496 
L 93.312 -38.016 
L 91.5264 -38.016 
L 89.7408 -38.016 
L 87.9552 -38.016 
L 86.1696 -117.8496 
L 84.384 -38.016 
L 82.5984 -38.016 
L 80.8128 -38.016 
L 79.0272 -117.8496 
L 77.2416 -117.8496 
L 75.456 -38.016 
L 73.6704 -38.016 
L 71.8848 -38.016 
L 70.0992 -38.016 
L 68.3136 -38.016 
L 66.528 -38.016 
L 64.7424 -38.016 
L 62.9568 -38.016 
L 61.1712 -38.016 
L 59.3856 -38.016 
z
" style="stroke: #2ca02c; stroke-opacity: 0.2"/>
    </defs>
    <g clip-path="url(#p23929b1bef)">
     <use xlink:href="#m94b19b8384" x="0" y="345.6" style="fill: #2ca02c; fill-opacity: 0.2; stroke: #2ca02c; stroke-opacity: 0.2"/>
    </g>
   </g>
   <g id="PolyCollection_4">
    <path d="M 71.8848 307.584 
L 71.8848 307.584 
L 86.1696 307.584 
L 100.4544 307.584 
L 114.7392 307.584 
L 129.024 307.584 
L 143.3088 334.1952 
L 157.5936 325.3248 
L 171.8784 309.048959 
L 186.1632 309.048959 
L 200.448 325.3248 
L 214.7328 309.048959 
L 229.0176 288.051015 
L 243.3024 309.048959 
L 257.5872 325.3248 
L 271.872 309.048959 
L 286.1568 263.232 
L 300.4416 263.232 
L 314.7264 202.604159 
L 329.0112 234.828615 
L 343.296 202.604159 
L 357.5808 234.828615 
L 371.8656 202.604159 
L 386.1504 165.6576 
L 400.4352 202.604159 
L 414.72 202.604159 
L 429.0048 202.604159 
L 443.2896 165.6576 
L 457.5744 165.6576 
L 471.8592 165.6576 
L 486.144 121.3056 
L 500.4288 121.3056 
L 514.7136 121.3056 
L 528.9984 121.3056 
L 543.2832 41.472 
L 557.568 41.472 
L 571.8528 41.472 
L 586.1376 41.472 
L 600.4224 121.3056 
L 614.7072 41.472 
L 628.992 41.472 
L 643.2768 41.472 
L 657.5616 41.472 
L 671.8464 121.3056 
L 686.1312 41.472 
L 700.416 41.472 
L 714.7008 41.472 
L 728.9856 41.472 
L 743.2704 41.472 
L 757.5552 121.3056 
L 771.84 41.472 
L 786.1248 41.472 
L 800.4096 41.472 
L 814.6944 41.472 
L 828.9792 41.472 
L 843.264 41.472 
L 857.5488 41.472 
L 871.8336 41.472 
L 886.1184 41.472 
L 900.4032 41.472 
L 914.688 41.472 
L 928.9728 41.472 
L 943.2576 41.472 
L 943.2576 41.472 
L 943.2576 41.472 
L 928.9728 41.472 
L 914.688 41.472 
L 900.4032 41.472 
L 886.1184 41.472 
L 871.8336 41.472 
L 857.5488 41.472 
L 843.264 41.472 
L 828.9792 41.472 
L 814.6944 41.472 
L 800.4096 41.472 
L 786.1248 41.472 
L 771.84 41.472 
L 757.5552 14.8608 
L 743.2704 41.472 
L 728.9856 41.472 
L 714.7008 41.472 
L 700.416 41.472 
L 686.1312 41.472 
L 671.8464 14.8608 
L 657.5616 41.472 
L 643.2768 41.472 
L 628.992 41.472 
L 614.7072 41.472 
L 600.4224 14.8608 
L 586.1376 41.472 
L 571.8528 41.472 
L 557.568 41.472 
L 543.2832 41.472 
L 528.9984 14.8608 
L 514.7136 14.8608 
L 500.4288 14.8608 
L 486.144 14.8608 
L 471.8592 23.7312 
L 457.5744 23.7312 
L 443.2896 23.7312 
L 429.0048 40.007041 
L 414.72 40.007041 
L 400.4352 40.007041 
L 386.1504 23.7312 
L 371.8656 40.007041 
L 357.5808 61.004985 
L 343.296 40.007041 
L 329.0112 61.004985 
L 314.7264 40.007041 
L 300.4416 85.824 
L 286.1568 85.824 
L 271.872 146.451841 
L 257.5872 183.3984 
L 243.3024 146.451841 
L 229.0176 114.227385 
L 214.7328 146.451841 
L 200.448 183.3984 
L 186.1632 146.451841 
L 171.8784 146.451841 
L 157.5936 183.3984 
L 143.3088 227.7504 
L 129.024 307.584 
L 114.7392 307.584 
L 100.4544 307.584 
L 86.1696 307.584 
L 71.8848 307.584 
z
" clip-path="url(#p23929b1bef)" style="fill: #d62728; fill-opacity: 0.2; stroke: #d62728; stroke-opacity: 0.2"/>
   </g>
   <g id="matplotlib.axis_1">
    <g id="xtick_1">
     <g id="line2d_1">
      <path d="M 57.6 307.584 
L 57.6 41.472 
" clip-path="url(#p23929b1bef)" style="fill: none; stroke: #b0b0b0; stroke-width: 0.8; stroke-linecap: square"/>
     </g>
     <g id="line2d_2">
      <defs>
       <path id="m150f1959fd" d="M 0 0 
L 0 3.5 
" style="stroke: #000000; stroke-width: 0.8"/>
      </defs>
      <g>
       <use xlink:href="#m150f1959fd" x="57.6" y="307.584" style="stroke: #000000; stroke-width: 0.8"/>
      </g>
     </g>
     <g id="text_1">
      <!-- 0.00 -->
      <g transform="translate(46.467188 322.182437)scale(0.1 -0.1)">
       <defs>
        <path id="DejaVuSans-30" d="M 2034 4250 
Q 1547 4250 1301 3770 
Q 1056 3291 1056 2328 
Q 1056 1369 1301 889 
Q 1547 409 2034 409 
Q 2525 409 2770 889 
Q 3016 1369 3016 2328 
Q 3016 3291 2770 3770 
Q 2525 4250 2034 4250 
z
M 2034 4750 
Q 2819 4750 3233 4129 
Q 3647 3509 3647 2328 
Q 3647 1150 3233 529 
Q 2819 -91 2034 -91 
Q 1250 -91 836 529 
Q 422 1150 422 2328 
Q 422 3509 836 4129 
Q 1250 4750 2034 4750 
z
" transform="scale(0.015625)"/>
        <path id="DejaVuSans-2e" d="M 684 794 
L 1344 794 
L 1344 0 
L 684 0 
L 684 794 
z
" transform="scale(0.015625)"/>
       </defs>
       <use xlink:href="#DejaVuSans-30"/>
       <use xlink:href="#DejaVuSans-2e" x="63.623047"/>
       <use xlink:href="#DejaVuSans-30" x="95.410156"/>
       <use xlink:href="#DejaVuSans-30" x="159.033203"/>
      </g>
     </g>
    </g>
    <g id="xtick_2">
     <g id="line2d_3">
      <path d="M 102.24 307.584 
L 102.24 41.472 
" clip-path="url(#p23929b1bef)" style="fill: none; stroke: #b0b0b0; stroke-width: 0.8; stroke-linecap: square"/>
     </g>
     <g id="line2d_4">
      <g>
       <use xlink:href="#m150f1959fd" x="102.24" y="307.584" style="stroke: #000000; stroke-width: 0.8"/>
      </g>
     </g>
     <g id="text_2">
      <!-- 0.25 -->
      <g transform="translate(91.107188 322.182437)scale(0.1 -0.1)">
       <defs>
        <path id="DejaVuSans-32" d="M 1228 531 
L 3431 531 
L 3431 0 
L 469 0 
L 469 531 
Q 828 903 1448 1529 
Q 2069 2156 2228 2338 
Q 2531 2678 2651 2914 
Q 2772 3150 2772 3378 
Q 2772 3750 2511 3984 
Q 2250 4219 1831 4219 
Q 1534 4219 1204 4116 
Q 875 4013 500 3803 
L 500 4441 
Q 881 4594 1212 4672 
Q 1544 4750 1819 4750 
Q 2544 4750 2975 4387 
Q 3406 4025 3406 3419 
Q 3406 3131 3298 2873 
Q 3191 2616 2906 2266 
Q 2828 2175 2409 1742 
Q 1991 1309 1228 531 
z
" transform="scale(0.015625)"/>
        <path id="DejaVuSans-35" d="M 691 4666 
L 3169 4666 
L 3169 4134 
L 1269 4134 
L 1269 2991 
Q 1406 3038 1543 3061 
Q 1681 3084 1819 3084 
Q 2600 3084 3056 2656 
Q 3513 2228 3513 1497 
Q 3513 744 3044 326 
Q 2575 -91 1722 -91 
Q 1428 -91 1123 -41 
Q 819 9 494 109 
L 494 744 
Q 775 591 1075 516 
Q 1375 441 1709 441 
Q 2250 441 2565 725 
Q 2881 1009 2881 1497 
Q 2881 1984 2565 2268 
Q 2250 2553 1709 2553 
Q 1456 2553 1204 2497 
Q 953 2441 691 2322 
L 691 4666 
z
" transform="scale(0.015625)"/>
       </defs>
       <use xlink:href="#DejaVuSans-30"/>
       <use xlink:href="#DejaVuSans-2e" x="63.623047"/>
       <use xlink:href="#DejaVuSans-32" x="95.410156"/>
       <use xlink:href="#DejaVuSans-35" x="159.033203"/>
      </g>
     </g>
    </g>
    <g id="xtick_3">
     <g id="line2d_5">
      <path d="M 146.88 307.584 
L 146.88 41.472 
" clip-path="url(#p23929b1bef)" style="fill: none; stroke: #b0b0b0; stroke-width: 0.8; stroke-linecap: square"/>
     </g>
     <g id="line2d_6">
      <g>
       <use xlink:href="#m150f1959fd" x="146.88" y="307.584" style="stroke: #000000; stroke-width: 0.8"/>
      </g>
     </g>
     <g id="text_3">
      <!-- 0.50 -->
      <g transform="translate(135.747187 322.182437)scale(0.1 -0.1)">
       <use xlink:href="#DejaVuSans-30"/>
       <use xlink:href="#DejaVuSans-2e" x="63.623047"/>
       <use xlink:href="#DejaVuSans-35" x="95.410156"/>
       <use xlink:href="#DejaVuSans-30" x="159.033203"/>
      </g>
     </g>
    </g>
    <g id="xtick_4">
     <g id="line2d_7">
      <path d="M 191.52 307.584 
L 191.52 41.472 
" clip-path="url(#p23929b1bef)" style="fill: none; stroke: #b0b0b0; stroke-width: 0.8; stroke-linecap: square"/>
     </g>
     <g id="line2d_8">
      <g>
       <use xlink:href="#m150f1959fd" x="191.52" y="307.584" style="stroke: #000000; stroke-width: 0.8"/>
      </g>
     </g>
     <g id="text_4">
      <!-- 0.75 -->
      <g transform="translate(180.387187 322.182437)scale(0.1 -0.1)">
       <defs>
        <path id="DejaVuSans-37" d="M 525 4666 
L 3525 4666 
L 3525 4397 
L 1831 0 
L 1172 0 
L 2766 4134 
L 525 4134 
L 525 4666 
z
" transform="scale(0.015625)"/>
       </defs>
       <use xlink:href="#DejaVuSans-30"/>
       <use xlink:href="#DejaVuSans-2e" x="63.623047"/>
       <use xlink:href="#DejaVuSans-37" x="95.410156"/>
       <use xlink:href="#DejaVuSans-35" x="159.033203"/>
      </g>
     </g>
    </g>
    <g id="xtick_5">
     <g id="line2d_9">
      <path d="M 236.16 307.584 
L 236.16 41.472 
" clip-path="url(#p23929b1bef)" style="fill: none; stroke: #b0b0b0; stroke-width: 0.8; stroke-linecap: square"/>
     </g>
     <g id="line2d_10">
      <g>
       <use xlink:href="#m150f1959fd" x="236.16" y="307.584" style="stroke: #000000; stroke-width: 0.8"/>
      </g>
     </g>
     <g id="text_5">
      <!-- 1.00 -->
      <g transform="translate(225.027187 322.182437)scale(0.1 -0.1)">
       <defs>
        <path id="DejaVuSans-31" d="M 794 531 
L 1825 531 
L 1825 4091 
L 703 3866 
L 703 4441 
L 1819 4666 
L 2450 4666 
L 2450 531 
L 3481 531 
L 3481 0 
L 794 0 
L 794 531 
z
" transform="scale(0.015625)"/>
       </defs>
       <use xlink:href="#DejaVuSans-31"/>
       <use xlink:href="#DejaVuSans-2e" x="63.623047"/>
       <use xlink:href="#DejaVuSans-30" x="95.410156"/>
       <use xlink:href="#DejaVuSans-30" x="159.033203"/>
      </g>
     </g>
    </g>
    <g id="xtick_6">
     <g id="line2d_11">
      <path d="M 280.8 307.584 
L 280.8 41.472 
" clip-path="url(#p23929b1bef)" style="fill: none; stroke: #b0b0b0; stroke-width: 0.8; stroke-linecap: square"/>
     </g>
     <g id="line2d_12">
      <g>
       <use xlink:href="#m150f1959fd" x="280.8" y="307.584" style="stroke: #000000; stroke-width: 0.8"/>
      </g>
     </g>
     <g id="text_6">
      <!-- 1.25 -->
      <g transform="translate(269.667188 322.182437)scale(0.1 -0.1)">
       <use xlink:href="#DejaVuSans-31"/>
       <use xlink:href="#DejaVuSans-2e" x="63.623047"/>
       <use xlink:href="#DejaVuSans-32" x="95.410156"/>
       <use xlink:href="#DejaVuSans-35" x="159.033203"/>
      </g>
     </g>
    </g>
    <g id="xtick_7">
     <g id="line2d_13">
      <path d="M 325.44 307.584 
L 325.44 41.472 
" clip-path="url(#p23929b1bef)" style="fill: none; stroke: #b0b0b0; stroke-width: 0.8; stroke-linecap: square"/>
     </g>
     <g id="line2d_14">
      <g>
       <use xlink:href="#m150f1959fd" x="325.44" y="307.584" style="stroke: #000000; stroke-width: 0.8"/>
      </g>
     </g>
     <g id="text_7">
      <!-- 1.50 -->
      <g transform="translate(314.307187 322.182437)scale(0.1 -0.1)">
       <use xlink:href="#DejaVuSans-31"/>
       <use xlink:href="#DejaVuSans-2e" x="63.623047"/>
       <use xlink:href="#DejaVuSans-35" x="95.410156"/>
       <use xlink:href="#DejaVuSans-30" x="159.033203"/>
      </g>
     </g>
    </g>
    <g id="xtick_8">
     <g id="line2d_15">
      <path d="M 370.08 307.584 
L 370.08 41.472 
" clip-path="url(#p23929b1bef)" style="fill: none; stroke: #b0b0b0; stroke-width: 0.8; stroke-linecap: square"/>
     </g>
     <g id="line2d_16">
      <g>
       <use xlink:href="#m150f1959fd" x="370.08" y="307.584" style="stroke: #000000; stroke-width: 0.8"/>
      </g>
     </g>
     <g id="text_8">
      <!-- 1.75 -->
      <g transform="translate(358.947188 322.182437)scale(0.1 -0.1)">
       <use xlink:href="#DejaVuSans-31"/>
       <use xlink:href="#DejaVuSans-2e" x="63.623047"/>
       <use xlink:href="#DejaVuSans-37" x="95.410156"/>
       <use xlink:href="#DejaVuSans-35" x="159.033203"/>
      </g>
     </g>
    </g>
    <g id="xtick_9">
     <g id="line2d_17">
      <path d="M 414.72 307.584 
L 414.72 41.472 
" clip-path="url(#p23929b1bef)" style="fill: none; stroke: #b0b0b0; stroke-width: 0.8; stroke-linecap: square"/>
     </g>
     <g id="line2d_18">
      <g>
       <use xlink:href="#m150f1959fd" x="414.72" y="307.584" style="stroke: #000000; stroke-width: 0.8"/>
      </g>
     </g>
     <g id="text_9">
      <!-- 2.00 -->
      <g transform="translate(403.587188 322.182437)scale(0.1 -0.1)">
       <use xlink:href="#DejaVuSans-32"/>
       <use xlink:href="#DejaVuSans-2e" x="63.623047"/>
       <use xlink:href="#DejaVuSans-30" x="95.410156"/>
       <use xlink:href="#DejaVuSans-30" x="159.033203"/>
      </g>
     </g>
    </g>
    <g id="text_10">
     <!-- step -->
     <g transform="translate(225.344375 335.860562)scale(0.1 -0.1)">
      <defs>
       <path id="DejaVuSans-73" d="M 2834 3397 
L 2834 2853 
Q 2591 2978 2328 3040 
Q 2066 3103 1784 3103 
Q 1356 3103 1142 2972 
Q 928 2841 928 2578 
Q 928 2378 1081 2264 
Q 1234 2150 1697 2047 
L 1894 2003 
Q 2506 1872 2764 1633 
Q 3022 1394 3022 966 
Q 3022 478 2636 193 
Q 2250 -91 1575 -91 
Q 1294 -91 989 -36 
Q 684 19 347 128 
L 347 722 
Q 666 556 975 473 
Q 1284 391 1588 391 
Q 1994 391 2212 530 
Q 2431 669 2431 922 
Q 2431 1156 2273 1281 
Q 2116 1406 1581 1522 
L 1381 1569 
Q 847 1681 609 1914 
Q 372 2147 372 2553 
Q 372 3047 722 3315 
Q 1072 3584 1716 3584 
Q 2034 3584 2315 3537 
Q 2597 3491 2834 3397 
z
" transform="scale(0.015625)"/>
       <path id="DejaVuSans-74" d="M 1172 4494 
L 1172 3500 
L 2356 3500 
L 2356 3053 
L 1172 3053 
L 1172 1153 
Q 1172 725 1289 603 
Q 1406 481 1766 481 
L 2356 481 
L 2356 0 
L 1766 0 
Q 1100 0 847 248 
Q 594 497 594 1153 
L 594 3053 
L 172 3053 
L 172 3500 
L 594 3500 
L 594 4494 
L 1172 4494 
z
" transform="scale(0.015625)"/>
       <path id="DejaVuSans-65" d="M 3597 1894 
L 3597 1613 
L 953 1613 
Q 991 1019 1311 708 
Q 1631 397 2203 397 
Q 2534 397 2845 478 
Q 3156 559 3463 722 
L 3463 178 
Q 3153 47 2828 -22 
Q 2503 -91 2169 -91 
Q 1331 -91 842 396 
Q 353 884 353 1716 
Q 353 2575 817 3079 
Q 1281 3584 2069 3584 
Q 2775 3584 3186 3129 
Q 3597 2675 3597 1894 
z
M 3022 2063 
Q 3016 2534 2758 2815 
Q 2500 3097 2075 3097 
Q 1594 3097 1305 2825 
Q 1016 2553 972 2059 
L 3022 2063 
z
" transform="scale(0.015625)"/>
       <path id="DejaVuSans-70" d="M 1159 525 
L 1159 -1331 
L 581 -1331 
L 581 3500 
L 1159 3500 
L 1159 2969 
Q 1341 3281 1617 3432 
Q 1894 3584 2278 3584 
Q 2916 3584 3314 3078 
Q 3713 2572 3713 1747 
Q 3713 922 3314 415 
Q 2916 -91 2278 -91 
Q 1894 -91 1617 61 
Q 1341 213 1159 525 
z
M 3116 1747 
Q 3116 2381 2855 2742 
Q 2594 3103 2138 3103 
Q 1681 3103 1420 2742 
Q 1159 2381 1159 1747 
Q 1159 1113 1420 752 
Q 1681 391 2138 391 
Q 2594 391 2855 752 
Q 3116 1113 3116 1747 
z
" transform="scale(0.015625)"/>
      </defs>
      <use xlink:href="#DejaVuSans-73"/>
      <use xlink:href="#DejaVuSans-74" x="52.099609"/>
      <use xlink:href="#DejaVuSans-65" x="91.308594"/>
      <use xlink:href="#DejaVuSans-70" x="152.832031"/>
     </g>
    </g>
    <g id="text_11">
     <!-- 1e6 -->
     <g transform="translate(395.841875 334.860562)scale(0.1 -0.1)">
      <defs>
       <path id="DejaVuSans-36" d="M 2113 2584 
Q 1688 2584 1439 2293 
Q 1191 2003 1191 1497 
Q 1191 994 1439 701 
Q 1688 409 2113 409 
Q 2538 409 2786 701 
Q 3034 994 3034 1497 
Q 3034 2003 2786 2293 
Q 2538 2584 2113 2584 
z
M 3366 4563 
L 3366 3988 
Q 3128 4100 2886 4159 
Q 2644 4219 2406 4219 
Q 1781 4219 1451 3797 
Q 1122 3375 1075 2522 
Q 1259 2794 1537 2939 
Q 1816 3084 2150 3084 
Q 2853 3084 3261 2657 
Q 3669 2231 3669 1497 
Q 3669 778 3244 343 
Q 2819 -91 2113 -91 
Q 1303 -91 875 529 
Q 447 1150 447 2328 
Q 447 3434 972 4092 
Q 1497 4750 2381 4750 
Q 2619 4750 2861 4703 
Q 3103 4656 3366 4563 
z
" transform="scale(0.015625)"/>
      </defs>
      <use xlink:href="#DejaVuSans-31"/>
      <use xlink:href="#DejaVuSans-65" x="63.623047"/>
      <use xlink:href="#DejaVuSans-36" x="125.146484"/>
     </g>
    </g>
   </g>
   <g id="matplotlib.axis_2">
    <g id="ytick_1">
     <g id="line2d_19">
      <path d="M 57.6 307.584 
L 414.72 307.584 
" clip-path="url(#p23929b1bef)" style="fill: none; stroke: #b0b0b0; stroke-width: 0.8; stroke-linecap: square"/>
     </g>
     <g id="line2d_20">
      <defs>
       <path id="m4fbdedacec" d="M 0 0 
L -3.5 0 
" style="stroke: #000000; stroke-width: 0.8"/>
      </defs>
      <g>
       <use xlink:href="#m4fbdedacec" x="57.6" y="307.584" style="stroke: #000000; stroke-width: 0.8"/>
      </g>
     </g>
     <g id="text_12">
      <!-- 0.0 -->
      <g transform="translate(34.696875 311.383219)scale(0.1 -0.1)">
       <use xlink:href="#DejaVuSans-30"/>
       <use xlink:href="#DejaVuSans-2e" x="63.623047"/>
       <use xlink:href="#DejaVuSans-30" x="95.410156"/>
      </g>
     </g>
    </g>
    <g id="ytick_2">
     <g id="line2d_21">
      <path d="M 57.6 254.3616 
L 414.72 254.3616 
" clip-path="url(#p23929b1bef)" style="fill: none; stroke: #b0b0b0; stroke-width: 0.8; stroke-linecap: square"/>
     </g>
     <g id="line2d_22">
      <g>
       <use xlink:href="#m4fbdedacec" x="57.6" y="254.3616" style="stroke: #000000; stroke-width: 0.8"/>
      </g>
     </g>
     <g id="text_13">
      <!-- 0.2 -->
      <g transform="translate(34.696875 258.160819)scale(0.1 -0.1)">
       <use xlink:href="#DejaVuSans-30"/>
       <use xlink:href="#DejaVuSans-2e" x="63.623047"/>
       <use xlink:href="#DejaVuSans-32" x="95.410156"/>
      </g>
     </g>
    </g>
    <g id="ytick_3">
     <g id="line2d_23">
      <path d="M 57.6 201.1392 
L 414.72 201.1392 
" clip-path="url(#p23929b1bef)" style="fill: none; stroke: #b0b0b0; stroke-width: 0.8; stroke-linecap: square"/>
     </g>
     <g id="line2d_24">
      <g>
       <use xlink:href="#m4fbdedacec" x="57.6" y="201.1392" style="stroke: #000000; stroke-width: 0.8"/>
      </g>
     </g>
     <g id="text_14">
      <!-- 0.4 -->
      <g transform="translate(34.696875 204.938419)scale(0.1 -0.1)">
       <defs>
        <path id="DejaVuSans-34" d="M 2419 4116 
L 825 1625 
L 2419 1625 
L 2419 4116 
z
M 2253 4666 
L 3047 4666 
L 3047 1625 
L 3713 1625 
L 3713 1100 
L 3047 1100 
L 3047 0 
L 2419 0 
L 2419 1100 
L 313 1100 
L 313 1709 
L 2253 4666 
z
" transform="scale(0.015625)"/>
       </defs>
       <use xlink:href="#DejaVuSans-30"/>
       <use xlink:href="#DejaVuSans-2e" x="63.623047"/>
       <use xlink:href="#DejaVuSans-34" x="95.410156"/>
      </g>
     </g>
    </g>
    <g id="ytick_4">
     <g id="line2d_25">
      <path d="M 57.6 147.9168 
L 414.72 147.9168 
" clip-path="url(#p23929b1bef)" style="fill: none; stroke: #b0b0b0; stroke-width: 0.8; stroke-linecap: square"/>
     </g>
     <g id="line2d_26">
      <g>
       <use xlink:href="#m4fbdedacec" x="57.6" y="147.9168" style="stroke: #000000; stroke-width: 0.8"/>
      </g>
     </g>
     <g id="text_15">
      <!-- 0.6 -->
      <g transform="translate(34.696875 151.716019)scale(0.1 -0.1)">
       <use xlink:href="#DejaVuSans-30"/>
       <use xlink:href="#DejaVuSans-2e" x="63.623047"/>
       <use xlink:href="#DejaVuSans-36" x="95.410156"/>
      </g>
     </g>
    </g>
    <g id="ytick_5">
     <g id="line2d_27">
      <path d="M 57.6 94.6944 
L 414.72 94.6944 
" clip-path="url(#p23929b1bef)" style="fill: none; stroke: #b0b0b0; stroke-width: 0.8; stroke-linecap: square"/>
     </g>
     <g id="line2d_28">
      <g>
       <use xlink:href="#m4fbdedacec" x="57.6" y="94.6944" style="stroke: #000000; stroke-width: 0.8"/>
      </g>
     </g>
     <g id="text_16">
      <!-- 0.8 -->
      <g transform="translate(34.696875 98.493619)scale(0.1 -0.1)">
       <defs>
        <path id="DejaVuSans-38" d="M 2034 2216 
Q 1584 2216 1326 1975 
Q 1069 1734 1069 1313 
Q 1069 891 1326 650 
Q 1584 409 2034 409 
Q 2484 409 2743 651 
Q 3003 894 3003 1313 
Q 3003 1734 2745 1975 
Q 2488 2216 2034 2216 
z
M 1403 2484 
Q 997 2584 770 2862 
Q 544 3141 544 3541 
Q 544 4100 942 4425 
Q 1341 4750 2034 4750 
Q 2731 4750 3128 4425 
Q 3525 4100 3525 3541 
Q 3525 3141 3298 2862 
Q 3072 2584 2669 2484 
Q 3125 2378 3379 2068 
Q 3634 1759 3634 1313 
Q 3634 634 3220 271 
Q 2806 -91 2034 -91 
Q 1263 -91 848 271 
Q 434 634 434 1313 
Q 434 1759 690 2068 
Q 947 2378 1403 2484 
z
M 1172 3481 
Q 1172 3119 1398 2916 
Q 1625 2713 2034 2713 
Q 2441 2713 2670 2916 
Q 2900 3119 2900 3481 
Q 2900 3844 2670 4047 
Q 2441 4250 2034 4250 
Q 1625 4250 1398 4047 
Q 1172 3844 1172 3481 
z
" transform="scale(0.015625)"/>
       </defs>
       <use xlink:href="#DejaVuSans-30"/>
       <use xlink:href="#DejaVuSans-2e" x="63.623047"/>
       <use xlink:href="#DejaVuSans-38" x="95.410156"/>
      </g>
     </g>
    </g>
    <g id="ytick_6">
     <g id="line2d_29">
      <path d="M 57.6 41.472 
L 414.72 41.472 
" clip-path="url(#p23929b1bef)" style="fill: none; stroke: #b0b0b0; stroke-width: 0.8; stroke-linecap: square"/>
     </g>
     <g id="line2d_30">
      <g>
       <use xlink:href="#m4fbdedacec" x="57.6" y="41.472" style="stroke: #000000; stroke-width: 0.8"/>
      </g>
     </g>
     <g id="text_17">
      <!-- 1.0 -->
      <g transform="translate(34.696875 45.271219)scale(0.1 -0.1)">
       <use xlink:href="#DejaVuSans-31"/>
       <use xlink:href="#DejaVuSans-2e" x="63.623047"/>
       <use xlink:href="#DejaVuSans-30" x="95.410156"/>
      </g>
     </g>
    </g>
    <g id="text_18">
     <!-- value -->
     <g transform="translate(28.617188 188.185812)rotate(-90)scale(0.1 -0.1)">
      <defs>
       <path id="DejaVuSans-76" d="M 191 3500 
L 800 3500 
L 1894 563 
L 2988 3500 
L 3597 3500 
L 2284 0 
L 1503 0 
L 191 3500 
z
" transform="scale(0.015625)"/>
       <path id="DejaVuSans-61" d="M 2194 1759 
Q 1497 1759 1228 1600 
Q 959 1441 959 1056 
Q 959 750 1161 570 
Q 1363 391 1709 391 
Q 2188 391 2477 730 
Q 2766 1069 2766 1631 
L 2766 1759 
L 2194 1759 
z
M 3341 1997 
L 3341 0 
L 2766 0 
L 2766 531 
Q 2569 213 2275 61 
Q 1981 -91 1556 -91 
Q 1019 -91 701 211 
Q 384 513 384 1019 
Q 384 1609 779 1909 
Q 1175 2209 1959 2209 
L 2766 2209 
L 2766 2266 
Q 2766 2663 2505 2880 
Q 2244 3097 1772 3097 
Q 1472 3097 1187 3025 
Q 903 2953 641 2809 
L 641 3341 
Q 956 3463 1253 3523 
Q 1550 3584 1831 3584 
Q 2591 3584 2966 3190 
Q 3341 2797 3341 1997 
z
" transform="scale(0.015625)"/>
       <path id="DejaVuSans-6c" d="M 603 4863 
L 1178 4863 
L 1178 0 
L 603 0 
L 603 4863 
z
" transform="scale(0.015625)"/>
       <path id="DejaVuSans-75" d="M 544 1381 
L 544 3500 
L 1119 3500 
L 1119 1403 
Q 1119 906 1312 657 
Q 1506 409 1894 409 
Q 2359 409 2629 706 
Q 2900 1003 2900 1516 
L 2900 3500 
L 3475 3500 
L 3475 0 
L 2900 0 
L 2900 538 
Q 2691 219 2414 64 
Q 2138 -91 1772 -91 
Q 1169 -91 856 284 
Q 544 659 544 1381 
z
M 1991 3584 
L 1991 3584 
z
" transform="scale(0.015625)"/>
      </defs>
      <use xlink:href="#DejaVuSans-76"/>
      <use xlink:href="#DejaVuSans-61" x="59.179688"/>
      <use xlink:href="#DejaVuSans-6c" x="120.458984"/>
      <use xlink:href="#DejaVuSans-75" x="148.242188"/>
      <use xlink:href="#DejaVuSans-65" x="211.621094"/>
     </g>
    </g>
   </g>
   <g id="line2d_31">
    <path d="M 59.3856 307.584 
L 98.6688 307.584 
L 100.4544 280.9728 
L 102.24 307.584 
L 114.7392 307.584 
L 116.5248 280.9728 
L 118.3104 280.9728 
L 120.096 307.584 
L 127.2384 307.584 
L 129.024 280.9728 
L 130.8096 307.584 
L 132.5952 307.584 
L 134.3808 280.9728 
L 136.1664 307.584 
L 137.952 254.3616 
L 139.7376 307.584 
L 143.3088 307.584 
L 146.88 254.3616 
L 148.6656 307.584 
L 150.4512 280.9728 
L 152.2368 307.584 
L 154.0224 280.9728 
L 155.808 307.584 
L 161.1648 307.584 
L 162.9504 280.9728 
L 164.736 307.584 
L 170.0928 307.584 
L 171.8784 280.9728 
L 173.664 307.584 
L 175.4496 201.1392 
L 177.2352 307.584 
L 179.0208 307.584 
L 180.8064 280.9728 
L 182.592 280.9728 
L 184.3776 307.584 
L 187.9488 307.584 
L 189.7344 280.9728 
L 191.52 307.584 
L 193.3056 227.7504 
L 195.0912 307.584 
L 198.6624 307.584 
L 200.448 280.9728 
L 202.2336 307.584 
L 204.0192 280.9728 
L 205.8048 307.584 
L 207.5904 280.9728 
L 209.376 307.584 
L 211.1616 280.9728 
L 212.9472 280.9728 
L 214.7328 307.584 
L 216.5184 307.584 
L 218.304 280.9728 
L 223.6608 280.9728 
L 225.4464 254.3616 
L 227.232 280.9728 
L 229.0176 254.3616 
L 230.8032 307.584 
L 234.3744 307.584 
L 236.16 280.9728 
L 237.9456 307.584 
L 241.5168 307.584 
L 243.3024 280.9728 
L 245.088 280.9728 
L 246.8736 307.584 
L 248.6592 307.584 
L 250.4448 280.9728 
L 252.2304 280.9728 
L 254.016 307.584 
L 255.8016 307.584 
L 257.5872 254.3616 
L 261.1584 307.584 
L 264.7296 307.584 
L 266.5152 280.9728 
L 271.872 280.9728 
L 273.6576 307.584 
L 275.4432 307.584 
L 277.2288 280.9728 
L 279.0144 307.584 
L 280.8 307.584 
L 284.3712 254.3616 
L 286.1568 254.3616 
L 287.9424 307.584 
L 289.728 307.584 
L 291.5136 254.3616 
L 295.0848 307.584 
L 296.8704 307.584 
L 298.656 280.9728 
L 300.4416 307.584 
L 302.2272 307.584 
L 304.0128 254.3616 
L 307.584 307.584 
L 309.3696 280.9728 
L 312.9408 280.9728 
L 314.7264 307.584 
L 316.512 280.9728 
L 318.2976 307.584 
L 320.0832 307.584 
L 321.8688 280.9728 
L 330.7968 280.9728 
L 332.5824 307.584 
L 334.368 227.7504 
L 336.1536 254.3616 
L 337.9392 307.584 
L 339.7248 307.584 
L 341.5104 280.9728 
L 350.4384 280.9728 
L 352.224 307.584 
L 355.7952 307.584 
L 357.5808 280.9728 
L 359.3664 307.584 
L 362.9376 307.584 
L 364.7232 280.9728 
L 366.5088 307.584 
L 368.2944 307.584 
L 370.08 280.9728 
L 371.8656 307.584 
L 373.6512 280.9728 
L 375.4368 280.9728 
L 377.2224 307.584 
L 379.008 280.9728 
L 382.5792 280.9728 
L 384.3648 227.7504 
L 386.1504 254.3616 
L 387.936 307.584 
L 389.7216 280.9728 
L 391.5072 307.584 
L 393.2928 307.584 
L 395.0784 280.9728 
L 396.864 280.9728 
L 398.6496 254.3616 
L 400.4352 307.584 
L 402.2208 280.9728 
L 404.0064 280.9728 
L 405.792 307.584 
L 407.5776 307.584 
L 409.3632 278.016 
L 411.1488 307.584 
L 414.72 307.584 
L 414.72 307.584 
" clip-path="url(#p23929b1bef)" style="fill: none; stroke: #1f77b4; stroke-width: 1.5; stroke-linecap: square"/>
   </g>
   <g id="line2d_32">
    <path d="M 59.3856 307.584 
L 84.384 307.584 
L 86.1696 280.9728 
L 87.9552 307.584 
L 125.4528 307.584 
L 127.2384 280.9728 
L 129.024 307.584 
L 130.8096 307.584 
L 132.5952 280.9728 
L 134.3808 307.584 
L 141.5232 307.584 
L 143.3088 280.9728 
L 145.0944 307.584 
L 270.0864 307.584 
L 271.872 278.016 
L 273.6576 307.584 
L 287.9424 307.584 
L 289.728 278.016 
L 291.5136 307.584 
L 384.3648 307.584 
L 386.1504 278.016 
L 387.936 307.584 
L 414.72 307.584 
L 414.72 307.584 
" clip-path="url(#p23929b1bef)" style="fill: none; stroke: #ff7f0e; stroke-width: 1.5; stroke-linecap: square"/>
   </g>
   <g id="line2d_33">
    <path d="M 59.3856 307.584 
L 75.456 307.584 
L 77.2416 280.9728 
L 79.0272 280.9728 
L 80.8128 307.584 
L 84.384 307.584 
L 86.1696 280.9728 
L 87.9552 307.584 
L 93.312 307.584 
L 95.0976 280.9728 
L 96.8832 307.584 
L 98.6688 280.9728 
L 100.4544 307.584 
L 102.24 307.584 
L 104.0256 280.9728 
L 105.8112 307.584 
L 107.5968 280.9728 
L 109.3824 307.584 
L 111.168 280.9728 
L 112.9536 307.584 
L 114.7392 254.3616 
L 116.5248 307.584 
L 121.8816 307.584 
L 123.6672 280.9728 
L 125.4528 280.9728 
L 127.2384 254.3616 
L 129.024 307.584 
L 130.8096 280.9728 
L 132.5952 307.584 
L 134.3808 280.9728 
L 136.1664 307.584 
L 137.952 280.9728 
L 139.7376 307.584 
L 143.3088 307.584 
L 145.0944 280.9728 
L 146.88 307.584 
L 148.6656 254.3616 
L 150.4512 307.584 
L 152.2368 280.9728 
L 154.0224 307.584 
L 155.808 280.9728 
L 157.5936 307.584 
L 159.3792 280.9728 
L 161.1648 280.9728 
L 162.9504 307.584 
L 164.736 307.584 
L 166.5216 254.3616 
L 168.3072 307.584 
L 170.0928 280.9728 
L 171.8784 307.584 
L 175.4496 307.584 
L 177.2352 280.9728 
L 179.0208 280.9728 
L 180.8064 254.3616 
L 182.592 254.3616 
L 184.3776 307.584 
L 191.52 307.584 
L 193.3056 280.9728 
L 195.0912 307.584 
L 196.8768 254.3616 
L 198.6624 307.584 
L 211.1616 307.584 
L 212.9472 254.3616 
L 216.5184 307.584 
L 218.304 254.3616 
L 220.0896 307.584 
L 221.8752 280.9728 
L 225.4464 280.9728 
L 227.232 307.584 
L 229.0176 280.9728 
L 230.8032 307.584 
L 236.16 307.584 
L 237.9456 280.9728 
L 239.7312 280.9728 
L 241.5168 254.3616 
L 243.3024 307.584 
L 245.088 307.584 
L 246.8736 254.3616 
L 250.4448 307.584 
L 259.3728 307.584 
L 262.944 254.3616 
L 266.5152 307.584 
L 270.0864 254.3616 
L 271.872 307.584 
L 275.4432 254.3616 
L 277.2288 280.9728 
L 279.0144 280.9728 
L 280.8 307.584 
L 282.5856 307.584 
L 284.3712 280.9728 
L 293.2992 280.9728 
L 295.0848 254.3616 
L 296.8704 307.584 
L 304.0128 307.584 
L 307.584 254.3616 
L 309.3696 280.9728 
L 311.1552 280.9728 
L 312.9408 307.584 
L 316.512 307.584 
L 318.2976 280.9728 
L 320.0832 280.9728 
L 321.8688 254.3616 
L 323.6544 280.9728 
L 325.44 280.9728 
L 327.2256 307.584 
L 329.0112 254.3616 
L 330.7968 280.9728 
L 332.5824 280.9728 
L 334.368 254.3616 
L 336.1536 254.3616 
L 337.9392 280.9728 
L 341.5104 280.9728 
L 343.296 254.3616 
L 345.0816 280.9728 
L 346.8672 254.3616 
L 348.6528 280.9728 
L 350.4384 254.3616 
L 355.7952 254.3616 
L 357.5808 227.7504 
L 359.3664 280.9728 
L 361.152 254.3616 
L 362.9376 280.9728 
L 364.7232 227.7504 
L 368.2944 280.9728 
L 370.08 254.3616 
L 373.6512 254.3616 
L 375.4368 227.7504 
L 377.2224 280.9728 
L 379.008 254.3616 
L 380.7936 254.3616 
L 382.5792 280.9728 
L 384.3648 254.3616 
L 386.1504 254.3616 
L 387.936 227.7504 
L 389.7216 227.7504 
L 391.5072 280.9728 
L 393.2928 227.7504 
L 395.0784 280.9728 
L 396.864 254.3616 
L 398.6496 280.9728 
L 402.2208 227.7504 
L 405.792 227.7504 
L 407.5776 254.3616 
L 409.3632 227.7504 
L 411.1488 280.9728 
L 412.9344 254.3616 
L 414.72 254.3616 
L 414.72 254.3616 
" clip-path="url(#p23929b1bef)" style="fill: none; stroke: #2ca02c; stroke-width: 1.5; stroke-linecap: square"/>
   </g>
   <g id="line2d_34">
    <path d="M 71.8848 307.584 
L 86.1696 307.584 
L 100.4544 307.584 
L 114.7392 307.584 
L 129.024 307.584 
L 143.3088 280.9728 
L 157.5936 254.3616 
L 171.8784 227.7504 
L 186.1632 227.7504 
L 200.448 254.3616 
L 214.7328 227.7504 
L 229.0176 201.1392 
L 243.3024 227.7504 
L 257.5872 254.3616 
L 271.872 227.7504 
L 286.1568 174.528 
L 300.4416 174.528 
L 314.7264 121.3056 
L 329.0112 147.9168 
L 343.296 121.3056 
L 357.5808 147.9168 
L 371.8656 121.3056 
L 386.1504 94.6944 
L 400.4352 121.3056 
L 414.72 121.3056 
L 429.0048 121.3056 
L 443.2896 94.6944 
L 457.5744 94.6944 
L 461.8 94.6944 
" clip-path="url(#p23929b1bef)" style="fill: none; stroke: #d62728; stroke-width: 1.5; stroke-linecap: square"/>
   </g>
   <g id="patch_3">
    <path d="M 57.6 307.584 
L 57.6 41.472 
" style="fill: none; stroke: #000000; stroke-width: 0.8; stroke-linejoin: miter; stroke-linecap: square"/>
   </g>
   <g id="patch_4">
    <path d="M 414.72 307.584 
L 414.72 41.472 
" style="fill: none; stroke: #000000; stroke-width: 0.8; stroke-linejoin: miter; stroke-linecap: square"/>
   </g>
   <g id="patch_5">
    <path d="M 57.6 307.584 
L 414.72 307.584 
" style="fill: none; stroke: #000000; stroke-width: 0.8; stroke-linejoin: miter; stroke-linecap: square"/>
   </g>
   <g id="patch_6">
    <path d="M 57.6 41.472 
L 414.72 41.472 
" style="fill: none; stroke: #000000; stroke-width: 0.8; stroke-linejoin: miter; stroke-linecap: square"/>
   </g>
   <g id="legend_1">
    <g id="patch_7">
     <path d="M 64.6 108.1845 
L 125.778125 108.1845 
Q 127.778125 108.1845 127.778125 106.1845 
L 127.778125 48.472 
Q 127.778125 46.472 125.778125 46.472 
L 64.6 46.472 
Q 62.6 46.472 62.6 48.472 
L 62.6 106.1845 
Q 62.6 108.1845 64.6 108.1845 
z
" style="fill: #ffffff; opacity: 0.8; stroke: #cccccc; stroke-linejoin: miter"/>
    </g>
    <g id="line2d_35">
     <path d="M 66.6 54.570438 
L 76.6 54.570438 
L 86.6 54.570438 
" style="fill: none; stroke: #1f77b4; stroke-width: 1.5; stroke-linecap: square"/>
    </g>
    <g id="text_19">
     <!-- DDPG -->
     <g transform="translate(94.6 58.070438)scale(0.1 -0.1)">
      <defs>
       <path id="DejaVuSans-44" d="M 1259 4147 
L 1259 519 
L 2022 519 
Q 2988 519 3436 956 
Q 3884 1394 3884 2338 
Q 3884 3275 3436 3711 
Q 2988 4147 2022 4147 
L 1259 4147 
z
M 628 4666 
L 1925 4666 
Q 3281 4666 3915 4102 
Q 4550 3538 4550 2338 
Q 4550 1131 3912 565 
Q 3275 0 1925 0 
L 628 0 
L 628 4666 
z
" transform="scale(0.015625)"/>
       <path id="DejaVuSans-50" d="M 1259 4147 
L 1259 2394 
L 2053 2394 
Q 2494 2394 2734 2622 
Q 2975 2850 2975 3272 
Q 2975 3691 2734 3919 
Q 2494 4147 2053 4147 
L 1259 4147 
z
M 628 4666 
L 2053 4666 
Q 2838 4666 3239 4311 
Q 3641 3956 3641 3272 
Q 3641 2581 3239 2228 
Q 2838 1875 2053 1875 
L 1259 1875 
L 1259 0 
L 628 0 
L 628 4666 
z
" transform="scale(0.015625)"/>
       <path id="DejaVuSans-47" d="M 3809 666 
L 3809 1919 
L 2778 1919 
L 2778 2438 
L 4434 2438 
L 4434 434 
Q 4069 175 3628 42 
Q 3188 -91 2688 -91 
Q 1594 -91 976 548 
Q 359 1188 359 2328 
Q 359 3472 976 4111 
Q 1594 4750 2688 4750 
Q 3144 4750 3555 4637 
Q 3966 4525 4313 4306 
L 4313 3634 
Q 3963 3931 3569 4081 
Q 3175 4231 2741 4231 
Q 1884 4231 1454 3753 
Q 1025 3275 1025 2328 
Q 1025 1384 1454 906 
Q 1884 428 2741 428 
Q 3075 428 3337 486 
Q 3600 544 3809 666 
z
" transform="scale(0.015625)"/>
      </defs>
      <use xlink:href="#DejaVuSans-44"/>
      <use xlink:href="#DejaVuSans-44" x="77.001953"/>
      <use xlink:href="#DejaVuSans-50" x="154.003906"/>
      <use xlink:href="#DejaVuSans-47" x="214.306641"/>
     </g>
    </g>
    <g id="line2d_36">
     <path d="M 66.6 69.248563 
L 76.6 69.248563 
L 86.6 69.248563 
" style="fill: none; stroke: #ff7f0e; stroke-width: 1.5; stroke-linecap: square"/>
    </g>
    <g id="text_20">
     <!-- TD3 -->
     <g transform="translate(94.6 72.748563)scale(0.1 -0.1)">
      <defs>
       <path id="DejaVuSans-54" d="M -19 4666 
L 3928 4666 
L 3928 4134 
L 2272 4134 
L 2272 0 
L 1638 0 
L 1638 4134 
L -19 4134 
L -19 4666 
z
" transform="scale(0.015625)"/>
       <path id="DejaVuSans-33" d="M 2597 2516 
Q 3050 2419 3304 2112 
Q 3559 1806 3559 1356 
Q 3559 666 3084 287 
Q 2609 -91 1734 -91 
Q 1441 -91 1130 -33 
Q 819 25 488 141 
L 488 750 
Q 750 597 1062 519 
Q 1375 441 1716 441 
Q 2309 441 2620 675 
Q 2931 909 2931 1356 
Q 2931 1769 2642 2001 
Q 2353 2234 1838 2234 
L 1294 2234 
L 1294 2753 
L 1863 2753 
Q 2328 2753 2575 2939 
Q 2822 3125 2822 3475 
Q 2822 3834 2567 4026 
Q 2313 4219 1838 4219 
Q 1578 4219 1281 4162 
Q 984 4106 628 3988 
L 628 4550 
Q 988 4650 1302 4700 
Q 1616 4750 1894 4750 
Q 2613 4750 3031 4423 
Q 3450 4097 3450 3541 
Q 3450 3153 3228 2886 
Q 3006 2619 2597 2516 
z
" transform="scale(0.015625)"/>
      </defs>
      <use xlink:href="#DejaVuSans-54"/>
      <use xlink:href="#DejaVuSans-44" x="61.083984"/>
      <use xlink:href="#DejaVuSans-33" x="138.085938"/>
     </g>
    </g>
    <g id="line2d_37">
     <path d="M 66.6 83.926688 
L 76.6 83.926688 
L 86.6 83.926688 
" style="fill: none; stroke: #2ca02c; stroke-width: 1.5; stroke-linecap: square"/>
    </g>
    <g id="text_21">
     <!-- SAC -->
     <g transform="translate(94.6 87.426688)scale(0.1 -0.1)">
      <defs>
       <path id="DejaVuSans-53" d="M 3425 4513 
L 3425 3897 
Q 3066 4069 2747 4153 
Q 2428 4238 2131 4238 
Q 1616 4238 1336 4038 
Q 1056 3838 1056 3469 
Q 1056 3159 1242 3001 
Q 1428 2844 1947 2747 
L 2328 2669 
Q 3034 2534 3370 2195 
Q 3706 1856 3706 1288 
Q 3706 609 3251 259 
Q 2797 -91 1919 -91 
Q 1588 -91 1214 -16 
Q 841 59 441 206 
L 441 856 
Q 825 641 1194 531 
Q 1563 422 1919 422 
Q 2459 422 2753 634 
Q 3047 847 3047 1241 
Q 3047 1584 2836 1778 
Q 2625 1972 2144 2069 
L 1759 2144 
Q 1053 2284 737 2584 
Q 422 2884 422 3419 
Q 422 4038 858 4394 
Q 1294 4750 2059 4750 
Q 2388 4750 2728 4690 
Q 3069 4631 3425 4513 
z
" transform="scale(0.015625)"/>
       <path id="DejaVuSans-41" d="M 2188 4044 
L 1331 1722 
L 3047 1722 
L 2188 4044 
z
M 1831 4666 
L 2547 4666 
L 4325 0 
L 3669 0 
L 3244 1197 
L 1141 1197 
L 716 0 
L 50 0 
L 1831 4666 
z
" transform="scale(0.015625)"/>
       <path id="DejaVuSans-43" d="M 4122 4306 
L 4122 3641 
Q 3803 3938 3442 4084 
Q 3081 4231 2675 4231 
Q 1875 4231 1450 3742 
Q 1025 3253 1025 2328 
Q 1025 1406 1450 917 
Q 1875 428 2675 428 
Q 3081 428 3442 575 
Q 3803 722 4122 1019 
L 4122 359 
Q 3791 134 3420 21 
Q 3050 -91 2638 -91 
Q 1578 -91 968 557 
Q 359 1206 359 2328 
Q 359 3453 968 4101 
Q 1578 4750 2638 4750 
Q 3056 4750 3426 4639 
Q 3797 4528 4122 4306 
z
" transform="scale(0.015625)"/>
      </defs>
      <use xlink:href="#DejaVuSans-53"/>
      <use xlink:href="#DejaVuSans-41" x="65.351562"/>
      <use xlink:href="#DejaVuSans-43" x="132.009766"/>
     </g>
    </g>
    <g id="line2d_38">
     <path d="M 66.6 98.604813 
L 76.6 98.604813 
L 86.6 98.604813 
" style="fill: none; stroke: #d62728; stroke-width: 1.5; stroke-linecap: square"/>
    </g>
    <g id="text_22">
     <!-- PPO -->
     <g transform="translate(94.6 102.104813)scale(0.1 -0.1)">
      <defs>
       <path id="DejaVuSans-4f" d="M 2522 4238 
Q 1834 4238 1429 3725 
Q 1025 3213 1025 2328 
Q 1025 1447 1429 934 
Q 1834 422 2522 422 
Q 3209 422 3611 934 
Q 4013 1447 4013 2328 
Q 4013 3213 3611 3725 
Q 3209 4238 2522 4238 
z
M 2522 4750 
Q 3503 4750 4090 4092 
Q 4678 3434 4678 2328 
Q 4678 1225 4090 567 
Q 3503 -91 2522 -91 
Q 1538 -91 948 565 
Q 359 1222 359 2328 
Q 359 3434 948 4092 
Q 1538 4750 2522 4750 
z
" transform="scale(0.015625)"/>
      </defs>
      <use xlink:href="#DejaVuSans-50"/>
      <use xlink:href="#DejaVuSans-50" x="60.302734"/>
      <use xlink:href="#DejaVuSans-4f" x="120.605469"/>
     </g>
    </g>
   </g>
  </g>
 </g>
 <defs>
  <clipPath id="p23929b1bef">
   <rect x="57.6" y="41.472" width="357.12" height="266.112"/>
  </clipPath>
 </defs>
</svg>
