<?xml version="1.0" encoding="utf-8" standalone="no"?>
<!DOCTYPE svg PUBLIC "-//W3C//DTD SVG 1.1//EN"
  "http://www.w3.org/Graphics/SVG/1.1/DTD/svg11.dtd">
<svg xmlns:xlink="http://www.w3.org/1999/xlink" width="460.8pt" height="345.6pt" viewBox="0 0 460.8 345.6" xmlns="http://www.w3.org/2000/svg" version="1.1">
 <metadata>
  <rdf:RDF xmlns:dc="http://purl.org/dc/elements/1.1/" xmlns:cc="http://creativecommons.org/ns#" xmlns:rdf="http://www.w3.org/1999/02/22-rdf-syntax-ns#">
   <cc:Work>
    <dc:type rdf:resource="http://purl.org/dc/dcmitype/StillImage"/>
    <dc:date>2023-02-27T00:38:30.466910</dc:date>
    <dc:format>image/svg+xml</dc:format>
    <dc:creator>
     <cc:Agent>
      <dc:title>Matplotlib v3.5.2, https://matplotlib.org/</dc:title>
     </cc:Agent>
    </dc:creator>
   </cc:Work>
  </rdf:RDF>
 </metadata>
 <defs>
  <style type="text/css">*{stroke-linejoin: round; stroke-linecap: butt}</style>
 </defs>
 <g id="figure_1">
  <g id="patch_1">
   <path d="M 0 345.6 
L 460.8 345.6 
L 460.8 0 
L 0 0 
z
" style="fill: #ffffff"/>
  </g>
  <g id="axes_1">
   <g id="patch_2">
    <path d="M 57.6 307.584 
L 414.72 307.584 
L 414.72 41.472 
L 57.6 41.472 
z
" style="fill: #ffffff"/>
   </g>
   <g id="PolyCollection_1">
    <defs>
     <path id="mcbd0119244" d="M 59.3856 -224.488849 
L 59.3856 -173.000572 
L 61.1712 -205.631125 
L 62.9568 -50.112 
L 64.7424 -185.527162 
L 66.528 -157.729408 
L 68.3136 -206.717281 
L 70.0992 -183.828547 
L 71.8848 -172.02497 
L 73.6704 -167.490784 
L 75.456 -207.891076 
L 77.2416 -113.300506 
L 79.0272 -142.732513 
L 80.8128 -151.272918 
L 82.5984 -207.436542 
L 84.384 -208.297618 
L 86.1696 -176.986557 
L 87.9552 -209.028568 
L 89.7408 -164.575965 
L 91.5264 -159.495252 
L 93.312 -199.834792 
L 95.0976 -124.342021 
L 96.8832 -153.637345 
L 98.6688 -179.322445 
L 100.4544 -106.197403 
L 102.24 -187.27164 
L 104.0256 -173.960239 
L 105.8112 -194.317471 
L 107.5968 -208.010174 
L 109.3824 -211.953254 
L 111.168 -125.203937 
L 112.9536 -207.993509 
L 114.7392 -117.977589 
L 116.5248 -211.086989 
L 118.3104 -209.415749 
L 120.096 -54.684579 
L 121.8816 -97.096442 
L 123.6672 -78.040844 
L 125.4528 -143.279941 
L 127.2384 -137.321982 
L 129.024 -211.168251 
L 130.8096 -175.5056 
L 132.5952 -176.565382 
L 134.3808 -142.406337 
L 136.1664 -204.870906 
L 137.952 -156.858202 
L 139.7376 -129.721787 
L 141.5232 -135.296214 
L 143.3088 -153.366279 
L 145.0944 -165.124811 
L 146.88 -185.838402 
L 148.6656 -176.661062 
L 150.4512 -190.283385 
L 152.2368 -153.676221 
L 154.0224 -149.818473 
L 155.808 -145.984059 
L 157.5936 -142.627362 
L 159.3792 -147.853389 
L 161.1648 -191.848052 
L 162.9504 -191.482399 
L 164.736 -133.723697 
L 166.5216 -160.201871 
L 168.3072 -142.273102 
L 170.0928 -180.190326 
L 171.8784 -207.621517 
L 173.664 -72.589229 
L 175.4496 -210.386865 
L 177.2352 -157.839168 
L 179.0208 -161.095626 
L 180.8064 -194.850477 
L 182.592 -190.291689 
L 184.3776 -206.811422 
L 186.1632 -139.250737 
L 187.9488 -114.368099 
L 189.7344 -173.140894 
L 191.52 -153.043446 
L 193.3056 -209.984258 
L 195.0912 -161.946563 
L 196.8768 -210.141499 
L 198.6624 -177.192827 
L 200.448 -130.106723 
L 202.2336 -149.212083 
L 204.0192 -219.074679 
L 205.8048 -162.93752 
L 207.5904 -176.148515 
L 209.376 -161.52914 
L 211.1616 -189.78329 
L 212.9472 -189.521096 
L 214.7328 -206.399968 
L 216.5184 -214.665616 
L 218.304 -152.342202 
L 220.0896 -192.78725 
L 221.8752 -203.091251 
L 223.6608 -172.230432 
L 225.4464 -190.80321 
L 227.232 -143.899507 
L 229.0176 -201.571571 
L 230.8032 -210.10033 
L 232.5888 -152.78198 
L 234.3744 -180.438754 
L 236.16 -203.684333 
L 237.9456 -167.275187 
L 239.7312 -189.764522 
L 241.5168 -166.072559 
L 243.3024 -214.505509 
L 245.088 -191.57071 
L 246.8736 -179.813902 
L 248.6592 -158.552772 
L 250.4448 -196.301405 
L 252.2304 -162.80617 
L 254.016 -181.789742 
L 255.8016 -178.112519 
L 257.5872 -194.917487 
L 259.3728 -86.647268 
L 261.1584 -183.997803 
L 262.944 -151.874047 
L 264.7296 -123.847604 
L 266.5152 -82.162465 
L 268.3008 -220.271428 
L 270.0864 -199.192369 
L 271.872 -180.283446 
L 273.6576 -186.525499 
L 275.4432 -217.698593 
L 277.2288 -188.096862 
L 279.0144 -212.744041 
L 280.8 -194.014977 
L 282.5856 -103.166747 
L 284.3712 -159.203295 
L 286.1568 -152.77844 
L 287.9424 -144.500372 
L 289.728 -186.140077 
L 291.5136 -188.015747 
L 293.2992 -201.234098 
L 295.0848 -117.288768 
L 296.8704 -173.34528 
L 298.656 -205.237986 
L 300.4416 -205.667328 
L 302.2272 -171.30846 
L 304.0128 -219.768792 
L 305.7984 -144.708882 
L 307.584 -217.460476 
L 309.3696 -180.86707 
L 311.1552 -210.82448 
L 312.9408 -192.410176 
L 314.7264 -202.737657 
L 316.512 -201.222389 
L 318.2976 -217.032947 
L 320.0832 -166.699354 
L 321.8688 -197.669544 
L 323.6544 -186.917481 
L 325.44 -183.040941 
L 327.2256 -214.826774 
L 329.0112 -182.347498 
L 330.7968 -170.677202 
L 332.5824 -157.29403 
L 334.368 -218.87058 
L 336.1536 -167.658498 
L 337.9392 -119.49373 
L 339.7248 -174.019402 
L 341.5104 -171.519704 
L 343.296 -213.881306 
L 345.0816 -213.24364 
L 346.8672 -206.082648 
L 348.6528 -169.615112 
L 350.4384 -176.150898 
L 352.224 -170.89009 
L 354.0096 -208.214561 
L 355.7952 -157.234607 
L 357.5808 -195.680925 
L 359.3664 -192.178899 
L 361.152 -130.14488 
L 362.9376 -214.896088 
L 364.7232 -183.902441 
L 366.5088 -186.341076 
L 368.2944 -190.33026 
L 370.08 -179.501193 
L 371.8656 -185.439249 
L 373.6512 -208.349284 
L 375.4368 -132.117437 
L 377.2224 -212.434602 
L 379.008 -193.207248 
L 380.7936 -212.704111 
L 382.5792 -187.154759 
L 384.3648 -141.650907 
L 386.1504 -215.535635 
L 387.936 -172.540784 
L 389.7216 -170.148431 
L 391.5072 -203.062803 
L 393.2928 -206.951606 
L 395.0784 -202.980076 
L 396.864 -164.882651 
L 398.6496 -211.261991 
L 400.4352 -122.51044 
L 402.2208 -184.397213 
L 404.0064 -209.147913 
L 405.792 -178.321237 
L 407.5776 -214.272437 
L 409.3632 -155.079732 
L 411.1488 -207.990909 
L 412.9344 -175.205502 
L 414.72 -185.420963 
L 414.72 -233.914536 
L 414.72 -233.914536 
L 412.9344 -227.968522 
L 411.1488 -232.093431 
L 409.3632 -241.449963 
L 407.5776 -221.597056 
L 405.792 -235.074424 
L 404.0064 -236.5441 
L 402.2208 -238.52689 
L 400.4352 -212.317718 
L 398.6496 -240.755581 
L 396.864 -245.036402 
L 395.0784 -227.772886 
L 393.2928 -231.438885 
L 391.5072 -231.720531 
L 389.7216 -239.217533 
L 387.936 -220.875345 
L 386.1504 -242.134727 
L 384.3648 -258.570121 
L 382.5792 -235.52369 
L 380.7936 -239.26156 
L 379.008 -235.086379 
L 377.2224 -221.881725 
L 375.4368 -237.240738 
L 373.6512 -237.573609 
L 371.8656 -239.071858 
L 370.08 -247.785227 
L 368.2944 -231.497336 
L 366.5088 -226.559831 
L 364.7232 -235.703109 
L 362.9376 -223.533572 
L 361.152 -246.406178 
L 359.3664 -217.835134 
L 357.5808 -236.18244 
L 355.7952 -234.783964 
L 354.0096 -229.990571 
L 352.224 -226.67502 
L 350.4384 -240.782779 
L 348.6528 -244.732474 
L 346.8672 -232.703722 
L 345.0816 -236.31038 
L 343.296 -241.055572 
L 341.5104 -245.307213 
L 339.7248 -228.883016 
L 337.9392 -229.155731 
L 336.1536 -243.622523 
L 334.368 -244.733944 
L 332.5824 -221.294218 
L 330.7968 -237.842631 
L 329.0112 -244.391285 
L 327.2256 -240.619993 
L 325.44 -243.162464 
L 323.6544 -233.912987 
L 321.8688 -236.173453 
L 320.0832 -242.390314 
L 318.2976 -223.617402 
L 316.512 -229.838629 
L 314.7264 -229.447169 
L 312.9408 -236.551718 
L 311.1552 -239.577396 
L 309.3696 -243.966671 
L 307.584 -232.088136 
L 305.7984 -257.545327 
L 304.0128 -245.252826 
L 302.2272 -226.369155 
L 300.4416 -226.852772 
L 298.656 -236.239295 
L 296.8704 -228.24325 
L 295.0848 -216.188072 
L 293.2992 -232.710208 
L 291.5136 -243.340669 
L 289.728 -238.242601 
L 287.9424 -218.834695 
L 286.1568 -249.842856 
L 284.3712 -236.575991 
L 282.5856 -248.729844 
L 280.8 -230.677767 
L 279.0144 -231.525376 
L 277.2288 -242.685914 
L 275.4432 -229.483974 
L 273.6576 -229.08351 
L 271.872 -238.140783 
L 270.0864 -238.132982 
L 268.3008 -234.05525 
L 266.5152 -242.950944 
L 264.7296 -241.481696 
L 262.944 -230.398373 
L 261.1584 -231.315865 
L 259.3728 -243.829903 
L 257.5872 -243.799156 
L 255.8016 -224.651957 
L 254.016 -227.020351 
L 252.2304 -240.071313 
L 250.4448 -236.980221 
L 248.6592 -233.676166 
L 246.8736 -229.427153 
L 245.088 -234.290456 
L 243.3024 -240.529289 
L 241.5168 -230.045378 
L 239.7312 -230.900848 
L 237.9456 -226.748777 
L 236.16 -245.16488 
L 234.3744 -243.019106 
L 232.5888 -229.356804 
L 230.8032 -229.098597 
L 229.0176 -244.841189 
L 227.232 -261.579451 
L 225.4464 -242.838696 
L 223.6608 -228.852077 
L 221.8752 -240.612823 
L 220.0896 -232.455924 
L 218.304 -235.421782 
L 216.5184 -227.307174 
L 214.7328 -225.815418 
L 212.9472 -238.787347 
L 211.1616 -247.089215 
L 209.376 -228.988937 
L 207.5904 -234.1548 
L 205.8048 -236.047265 
L 204.0192 -236.284556 
L 202.2336 -243.183636 
L 200.448 -220.580889 
L 198.6624 -243.341433 
L 196.8768 -226.898039 
L 195.0912 -234.192231 
L 193.3056 -252.48696 
L 191.52 -233.516489 
L 189.7344 -246.101761 
L 187.9488 -242.903871 
L 186.1632 -224.768627 
L 184.3776 -231.856339 
L 182.592 -232.000478 
L 180.8064 -239.023464 
L 179.0208 -244.049038 
L 177.2352 -227.125021 
L 175.4496 -259.972165 
L 173.664 -240.527859 
L 171.8784 -230.581231 
L 170.0928 -225.180125 
L 168.3072 -225.602571 
L 166.5216 -216.316252 
L 164.736 -249.359702 
L 162.9504 -231.895359 
L 161.1648 -229.716248 
L 159.3792 -218.233015 
L 157.5936 -234.458313 
L 155.808 -223.212681 
L 154.0224 -240.62663 
L 152.2368 -220.399293 
L 150.4512 -237.817821 
L 148.6656 -221.536781 
L 146.88 -241.771184 
L 145.0944 -236.971796 
L 143.3088 -240.666051 
L 141.5232 -224.670109 
L 139.7376 -229.634974 
L 137.952 -245.27577 
L 136.1664 -217.207188 
L 134.3808 -237.216951 
L 132.5952 -224.474944 
L 130.8096 -230.356747 
L 129.024 -240.267059 
L 127.2384 -224.091233 
L 125.4528 -237.351407 
L 123.6672 -246.730683 
L 121.8816 -248.153149 
L 120.096 -271.392552 
L 118.3104 -234.954902 
L 116.5248 -236.793313 
L 114.7392 -213.018799 
L 112.9536 -221.283253 
L 111.168 -242.590261 
L 109.3824 -216.980048 
L 107.5968 -219.071357 
L 105.8112 -221.561535 
L 104.0256 -227.746178 
L 102.24 -223.3174 
L 100.4544 -232.377257 
L 98.6688 -228.864347 
L 96.8832 -216.933075 
L 95.0976 -243.068153 
L 93.312 -216.975688 
L 91.5264 -221.759221 
L 89.7408 -227.841872 
L 87.9552 -213.363301 
L 86.1696 -217.501607 
L 84.384 -214.025751 
L 82.5984 -214.303609 
L 80.8128 -234.665197 
L 79.0272 -210.443336 
L 77.2416 -220.187972 
L 75.456 -213.523411 
L 73.6704 -229.090599 
L 71.8848 -223.266193 
L 70.0992 -218.620901 
L 68.3136 -221.949246 
L 66.528 -219.541487 
L 64.7424 -216.262737 
L 62.9568 -233.807163 
L 61.1712 -211.672403 
L 59.3856 -224.488849 
z
" style="stroke: #1f77b4; stroke-opacity: 0.2"/>
    </defs>
    <g clip-path="url(#p3358ec85b6)">
     <use xlink:href="#mcbd0119244" x="0" y="345.6" style="fill: #1f77b4; fill-opacity: 0.2; stroke: #1f77b4; stroke-opacity: 0.2"/>
    </g>
   </g>
   <g id="PolyCollection_2">
    <defs>
     <path id="m88a500206f" d="M 59.3856 -207.306624 
L 59.3856 -200.62283 
L 61.1712 -206.65496 
L 62.9568 -124.388293 
L 64.7424 -200.426288 
L 66.528 -206.920691 
L 68.3136 -166.095652 
L 70.0992 -203.1489 
L 71.8848 -154.939379 
L 73.6704 -170.788226 
L 75.456 -207.613399 
L 77.2416 -151.858501 
L 79.0272 -131.689276 
L 80.8128 -209.598708 
L 82.5984 -190.738295 
L 84.384 -163.664349 
L 86.1696 -198.738541 
L 87.9552 -153.201166 
L 89.7408 -154.143007 
L 91.5264 -209.856979 
L 93.312 -162.892096 
L 95.0976 -210.220766 
L 96.8832 -210.829198 
L 98.6688 -205.570972 
L 100.4544 -210.179162 
L 102.24 -209.958799 
L 104.0256 -210.276668 
L 105.8112 -210.303022 
L 107.5968 -174.066802 
L 109.3824 -207.719835 
L 111.168 -211.424579 
L 112.9536 -213.721525 
L 114.7392 -210.52284 
L 116.5248 -211.149069 
L 118.3104 -212.082773 
L 120.096 -131.95042 
L 121.8816 -214.036426 
L 123.6672 -213.584078 
L 125.4528 -190.923183 
L 127.2384 -212.149948 
L 129.024 -214.930823 
L 130.8096 -192.706212 
L 132.5952 -215.847856 
L 134.3808 -206.182935 
L 136.1664 -214.641366 
L 137.952 -213.712249 
L 139.7376 -217.628703 
L 141.5232 -201.494912 
L 143.3088 -215.498421 
L 145.0944 -194.139296 
L 146.88 -163.475151 
L 148.6656 -214.714914 
L 150.4512 -189.451521 
L 152.2368 -175.739851 
L 154.0224 -214.574567 
L 155.808 -177.514882 
L 157.5936 -214.659612 
L 159.3792 -215.574651 
L 161.1648 -205.532859 
L 162.9504 -216.176233 
L 164.736 -218.711861 
L 166.5216 -215.846597 
L 168.3072 -201.981619 
L 170.0928 -195.917021 
L 171.8784 -212.888267 
L 173.664 -214.049376 
L 175.4496 -218.73248 
L 177.2352 -218.825917 
L 179.0208 -213.856569 
L 180.8064 -202.74996 
L 182.592 -218.938516 
L 184.3776 -218.004328 
L 186.1632 -205.694097 
L 187.9488 -218.541303 
L 189.7344 -217.342947 
L 191.52 -216.473557 
L 193.3056 -219.866182 
L 195.0912 -219.472318 
L 196.8768 -219.915084 
L 198.6624 -216.62265 
L 200.448 -198.358677 
L 202.2336 -218.50184 
L 204.0192 -220.317911 
L 205.8048 -217.750849 
L 207.5904 -215.498692 
L 209.376 -220.719596 
L 211.1616 -197.094625 
L 212.9472 -218.224929 
L 214.7328 -177.77858 
L 216.5184 -220.004003 
L 218.304 -211.642543 
L 220.0896 -219.748442 
L 221.8752 -221.294161 
L 223.6608 -217.681653 
L 225.4464 -219.963492 
L 227.232 -219.561275 
L 229.0176 -218.919236 
L 230.8032 -218.798249 
L 232.5888 -191.395574 
L 234.3744 -215.617697 
L 236.16 -217.445241 
L 237.9456 -219.235615 
L 239.7312 -219.550808 
L 241.5168 -209.331883 
L 243.3024 -221.684774 
L 245.088 -221.622839 
L 246.8736 -218.422047 
L 248.6592 -218.686422 
L 250.4448 -220.451051 
L 252.2304 -212.816991 
L 254.016 -220.373991 
L 255.8016 -220.747158 
L 257.5872 -218.363241 
L 259.3728 -217.99016 
L 261.1584 -221.249765 
L 262.944 -218.121137 
L 264.7296 -219.901052 
L 266.5152 -219.057025 
L 268.3008 -220.842589 
L 270.0864 -213.627449 
L 271.872 -221.341168 
L 273.6576 -194.739213 
L 275.4432 -218.348468 
L 277.2288 -220.456657 
L 279.0144 -219.335992 
L 280.8 -203.971379 
L 282.5856 -218.812995 
L 284.3712 -222.417737 
L 286.1568 -220.694523 
L 287.9424 -185.528719 
L 289.728 -218.031364 
L 291.5136 -221.665431 
L 293.2992 -220.244286 
L 295.0848 -222.02279 
L 296.8704 -215.386399 
L 298.656 -221.595948 
L 300.4416 -222.360526 
L 302.2272 -210.471502 
L 304.0128 -222.288961 
L 305.7984 -221.317265 
L 307.584 -221.374297 
L 309.3696 -219.559491 
L 311.1552 -221.921824 
L 312.9408 -222.59208 
L 314.7264 -222.92848 
L 316.512 -222.026776 
L 318.2976 -223.28993 
L 320.0832 -198.838676 
L 321.8688 -221.400277 
L 323.6544 -172.71103 
L 325.44 -222.439235 
L 327.2256 -205.492747 
L 329.0112 -221.931333 
L 330.7968 -220.821189 
L 332.5824 -217.732513 
L 334.368 -188.546702 
L 336.1536 -216.839003 
L 337.9392 -223.19666 
L 339.7248 -180.357888 
L 341.5104 -204.598471 
L 343.296 -204.944588 
L 345.0816 -219.961836 
L 346.8672 -223.685821 
L 348.6528 -193.771539 
L 350.4384 -205.059086 
L 352.224 -224.159354 
L 354.0096 -222.040426 
L 355.7952 -222.018392 
L 357.5808 -223.544459 
L 359.3664 -210.957138 
L 361.152 -221.958129 
L 362.9376 -213.115392 
L 364.7232 -217.467935 
L 366.5088 -142.730907 
L 368.2944 -223.597802 
L 370.08 -221.280384 
L 371.8656 -220.691765 
L 373.6512 -223.353409 
L 375.4368 -222.399693 
L 377.2224 -221.202365 
L 379.008 -220.596923 
L 380.7936 -223.629685 
L 382.5792 -189.142347 
L 384.3648 -218.77772 
L 386.1504 -224.224864 
L 387.936 -222.811673 
L 389.7216 -223.912246 
L 391.5072 -223.563202 
L 393.2928 -222.116814 
L 395.0784 -221.473508 
L 396.864 -224.037943 
L 398.6496 -218.10491 
L 400.4352 -220.393571 
L 402.2208 -219.443032 
L 404.0064 -223.297025 
L 405.792 -222.838337 
L 407.5776 -200.436258 
L 409.3632 -177.513778 
L 411.1488 -220.755201 
L 412.9344 -221.045661 
L 414.72 -215.361184 
L 414.72 -227.91182 
L 414.72 -227.91182 
L 412.9344 -227.490925 
L 411.1488 -226.072741 
L 409.3632 -241.389078 
L 407.5776 -232.826519 
L 405.792 -227.176835 
L 404.0064 -226.221564 
L 402.2208 -226.321802 
L 400.4352 -224.882292 
L 398.6496 -227.173037 
L 396.864 -226.585334 
L 395.0784 -226.320772 
L 393.2928 -226.675475 
L 391.5072 -226.866945 
L 389.7216 -228.229313 
L 387.936 -226.880739 
L 386.1504 -230.832521 
L 384.3648 -226.72977 
L 382.5792 -236.243934 
L 380.7936 -228.808302 
L 379.008 -225.905787 
L 377.2224 -224.919912 
L 375.4368 -225.957786 
L 373.6512 -226.933547 
L 371.8656 -226.20468 
L 370.08 -225.723571 
L 368.2944 -226.667532 
L 366.5088 -247.056021 
L 364.7232 -227.433442 
L 362.9376 -226.949026 
L 361.152 -226.41527 
L 359.3664 -227.175594 
L 357.5808 -226.168652 
L 355.7952 -227.172237 
L 354.0096 -226.774975 
L 352.224 -226.895025 
L 350.4384 -229.743174 
L 348.6528 -233.774424 
L 346.8672 -226.406767 
L 345.0816 -225.870926 
L 343.296 -229.768878 
L 341.5104 -229.796854 
L 339.7248 -239.179519 
L 337.9392 -227.151851 
L 336.1536 -225.719158 
L 334.368 -237.682279 
L 332.5824 -226.544802 
L 330.7968 -224.573078 
L 329.0112 -226.093321 
L 327.2256 -230.654601 
L 325.44 -226.936611 
L 323.6544 -240.745949 
L 321.8688 -225.707908 
L 320.0832 -230.842019 
L 318.2976 -225.896219 
L 316.512 -226.455695 
L 314.7264 -225.091131 
L 312.9408 -226.250001 
L 311.1552 -225.119075 
L 309.3696 -226.637309 
L 307.584 -225.113293 
L 305.7984 -223.7348 
L 304.0128 -229.483356 
L 302.2272 -230.235048 
L 300.4416 -225.115756 
L 298.656 -225.103366 
L 296.8704 -224.998497 
L 295.0848 -225.349929 
L 293.2992 -227.417035 
L 291.5136 -225.373488 
L 289.728 -237.222643 
L 287.9424 -232.156476 
L 286.1568 -228.121249 
L 284.3712 -224.661257 
L 282.5856 -224.566116 
L 280.8 -230.927773 
L 279.0144 -226.02838 
L 277.2288 -223.622118 
L 275.4432 -226.82811 
L 273.6576 -227.497268 
L 271.872 -227.114033 
L 270.0864 -224.252561 
L 268.3008 -226.033806 
L 266.5152 -223.469769 
L 264.7296 -224.014657 
L 262.944 -226.787924 
L 261.1584 -225.495318 
L 259.3728 -225.091494 
L 257.5872 -224.221453 
L 255.8016 -224.599579 
L 254.016 -225.294436 
L 252.2304 -224.861032 
L 250.4448 -224.586345 
L 248.6592 -225.182992 
L 246.8736 -223.501561 
L 245.088 -224.150756 
L 243.3024 -223.618227 
L 241.5168 -225.606468 
L 239.7312 -223.770878 
L 237.9456 -222.462902 
L 236.16 -223.022741 
L 234.3744 -220.616429 
L 232.5888 -229.764704 
L 230.8032 -224.324559 
L 229.0176 -223.475996 
L 227.232 -224.036438 
L 225.4464 -224.608366 
L 223.6608 -225.474741 
L 221.8752 -224.804195 
L 220.0896 -223.248264 
L 218.304 -224.337739 
L 216.5184 -223.716044 
L 214.7328 -236.903328 
L 212.9472 -226.730836 
L 211.1616 -230.256538 
L 209.376 -224.001454 
L 207.5904 -223.366614 
L 205.8048 -222.596039 
L 204.0192 -223.665292 
L 202.2336 -223.153522 
L 200.448 -225.330324 
L 198.6624 -223.148843 
L 196.8768 -223.269767 
L 195.0912 -222.217697 
L 193.3056 -222.492213 
L 191.52 -228.770419 
L 189.7344 -221.502722 
L 187.9488 -223.509299 
L 186.1632 -225.303565 
L 184.3776 -222.076409 
L 182.592 -223.219504 
L 180.8064 -226.86814 
L 179.0208 -224.033027 
L 177.2352 -223.140651 
L 175.4496 -223.659011 
L 173.664 -222.379605 
L 171.8784 -220.508888 
L 170.0928 -227.794971 
L 168.3072 -231.722558 
L 166.5216 -221.212469 
L 164.736 -222.769304 
L 162.9504 -221.731004 
L 161.1648 -225.176246 
L 159.3792 -224.538235 
L 157.5936 -222.436698 
L 155.808 -232.454518 
L 154.0224 -222.707505 
L 152.2368 -229.580633 
L 150.4512 -228.045773 
L 148.6656 -223.234497 
L 146.88 -236.320135 
L 145.0944 -223.133336 
L 143.3088 -219.68029 
L 141.5232 -222.237002 
L 139.7376 -223.566549 
L 137.952 -220.258367 
L 136.1664 -219.089099 
L 134.3808 -220.691255 
L 132.5952 -231.535591 
L 130.8096 -215.720527 
L 129.024 -219.595252 
L 127.2384 -235.98136 
L 125.4528 -224.592185 
L 123.6672 -219.334783 
L 121.8816 -221.721902 
L 120.096 -243.726932 
L 118.3104 -218.930468 
L 116.5248 -221.251636 
L 114.7392 -216.967939 
L 112.9536 -224.438004 
L 111.168 -219.141237 
L 109.3824 -220.276246 
L 107.5968 -231.868195 
L 105.8112 -217.209896 
L 104.0256 -215.380189 
L 102.24 -216.134542 
L 100.4544 -215.234382 
L 98.6688 -218.334855 
L 96.8832 -217.386119 
L 95.0976 -216.919667 
L 93.312 -230.454096 
L 91.5264 -226.52894 
L 89.7408 -232.945396 
L 87.9552 -237.263668 
L 86.1696 -228.970905 
L 84.384 -214.707875 
L 82.5984 -225.124504 
L 80.8128 -215.112955 
L 79.0272 -237.758868 
L 77.2416 -233.17146 
L 75.456 -215.398134 
L 73.6704 -216.930872 
L 71.8848 -234.912134 
L 70.0992 -214.640627 
L 68.3136 -221.567192 
L 66.528 -214.210196 
L 64.7424 -211.414393 
L 62.9568 -219.652176 
L 61.1712 -212.383898 
L 59.3856 -207.306624 
z
" style="stroke: #ff7f0e; stroke-opacity: 0.2"/>
    </defs>
    <g clip-path="url(#p3358ec85b6)">
     <use xlink:href="#m88a500206f" x="0" y="345.6" style="fill: #ff7f0e; fill-opacity: 0.2; stroke: #ff7f0e; stroke-opacity: 0.2"/>
    </g>
   </g>
   <g id="PolyCollection_3">
    <defs>
     <path id="md6fc54cb86" d="M 59.3856 -216.567058 
L 59.3856 -207.248365 
L 61.1712 -174.942351 
L 62.9568 -165.133073 
L 64.7424 -111.859619 
L 66.528 -208.918016 
L 68.3136 -187.42411 
L 70.0992 -212.627392 
L 71.8848 -207.213079 
L 73.6704 -166.853633 
L 75.456 -161.559146 
L 77.2416 -198.052619 
L 79.0272 -180.65686 
L 80.8128 -140.755692 
L 82.5984 -150.00912 
L 84.384 -148.122016 
L 86.1696 -206.244596 
L 87.9552 -162.432464 
L 89.7408 -210.940185 
L 91.5264 -176.914428 
L 93.312 -208.33851 
L 95.0976 -200.798021 
L 96.8832 -208.771896 
L 98.6688 -205.281044 
L 100.4544 -137.514841 
L 102.24 -211.992775 
L 104.0256 -204.712396 
L 105.8112 -135.558121 
L 107.5968 -175.177365 
L 109.3824 -162.255008 
L 111.168 -196.205022 
L 112.9536 -201.679325 
L 114.7392 -171.17747 
L 116.5248 -165.207072 
L 118.3104 -159.341416 
L 120.096 -117.562142 
L 121.8816 -160.081108 
L 123.6672 -201.656024 
L 125.4528 -182.64134 
L 127.2384 -207.491521 
L 129.024 -182.275465 
L 130.8096 -184.284337 
L 132.5952 -211.625967 
L 134.3808 -184.011987 
L 136.1664 -171.323202 
L 137.952 -131.072827 
L 139.7376 -201.722539 
L 141.5232 -209.239118 
L 143.3088 -176.154475 
L 145.0944 -177.595055 
L 146.88 -182.682048 
L 148.6656 -184.248673 
L 150.4512 -213.348213 
L 152.2368 -205.730865 
L 154.0224 -125.455545 
L 155.808 -185.394099 
L 157.5936 -221.728834 
L 159.3792 -143.665299 
L 161.1648 -206.943036 
L 162.9504 -171.752348 
L 164.736 -153.993484 
L 166.5216 -221.046044 
L 168.3072 -221.910181 
L 170.0928 -155.288642 
L 171.8784 -141.542703 
L 173.664 -166.523212 
L 175.4496 -165.219258 
L 177.2352 -199.16353 
L 179.0208 -189.455574 
L 180.8064 -158.124261 
L 182.592 -133.635062 
L 184.3776 -156.238583 
L 186.1632 -172.576919 
L 187.9488 -191.440861 
L 189.7344 -212.329929 
L 191.52 -203.591152 
L 193.3056 -206.032241 
L 195.0912 -186.837862 
L 196.8768 -213.566926 
L 198.6624 -199.781402 
L 200.448 -210.47027 
L 202.2336 -199.083859 
L 204.0192 -142.738208 
L 205.8048 -214.163228 
L 207.5904 -188.155628 
L 209.376 -218.741411 
L 211.1616 -204.38893 
L 212.9472 -219.718175 
L 214.7328 -211.419211 
L 216.5184 -202.17171 
L 218.304 -223.571138 
L 220.0896 -222.363448 
L 221.8752 -204.261425 
L 223.6608 -193.268365 
L 225.4464 -212.997425 
L 227.232 -179.397426 
L 229.0176 -218.587712 
L 230.8032 -223.724216 
L 232.5888 -191.025574 
L 234.3744 -223.555213 
L 236.16 -203.99377 
L 237.9456 -219.773062 
L 239.7312 -212.807303 
L 241.5168 -223.892972 
L 243.3024 -221.078781 
L 245.088 -213.304077 
L 246.8736 -216.75272 
L 248.6592 -211.16329 
L 250.4448 -206.542225 
L 252.2304 -217.71608 
L 254.016 -217.112449 
L 255.8016 -222.874775 
L 257.5872 -221.599253 
L 259.3728 -221.926983 
L 261.1584 -223.29336 
L 262.944 -205.317196 
L 264.7296 -216.738188 
L 266.5152 -214.504563 
L 268.3008 -220.603714 
L 270.0864 -220.090591 
L 271.872 -206.948533 
L 273.6576 -219.83348 
L 275.4432 -225.427323 
L 277.2288 -168.374151 
L 279.0144 -182.970367 
L 280.8 -189.481351 
L 282.5856 -217.477848 
L 284.3712 -207.354823 
L 286.1568 -219.460232 
L 287.9424 -203.150909 
L 289.728 -220.87486 
L 291.5136 -220.972091 
L 293.2992 -223.414084 
L 295.0848 -220.83391 
L 296.8704 -156.35925 
L 298.656 -205.947584 
L 300.4416 -210.275295 
L 302.2272 -200.340183 
L 304.0128 -213.714141 
L 305.7984 -210.305708 
L 307.584 -223.289088 
L 309.3696 -208.775502 
L 311.1552 -215.640324 
L 312.9408 -204.912678 
L 314.7264 -202.390592 
L 316.512 -182.320845 
L 318.2976 -222.316138 
L 320.0832 -220.953055 
L 321.8688 -219.603583 
L 323.6544 -223.307757 
L 325.44 -176.107634 
L 327.2256 -226.047819 
L 329.0112 -215.282689 
L 330.7968 -207.212172 
L 332.5824 -223.253884 
L 334.368 -213.343357 
L 336.1536 -213.452943 
L 337.9392 -189.614737 
L 339.7248 -214.785438 
L 341.5104 -206.115173 
L 343.296 -212.63597 
L 345.0816 -211.906645 
L 346.8672 -213.593235 
L 348.6528 -216.802465 
L 350.4384 -201.116897 
L 352.224 -204.117662 
L 354.0096 -221.856836 
L 355.7952 -194.849287 
L 357.5808 -201.483603 
L 359.3664 -205.534384 
L 361.152 -211.365247 
L 362.9376 -184.757957 
L 364.7232 -206.297262 
L 366.5088 -226.061364 
L 368.2944 -200.535333 
L 370.08 -216.903766 
L 371.8656 -217.116897 
L 373.6512 -204.551687 
L 375.4368 -228.098537 
L 377.2224 -203.790087 
L 379.008 -208.859185 
L 380.7936 -213.252016 
L 382.5792 -184.196358 
L 384.3648 -219.701607 
L 386.1504 -221.283591 
L 387.936 -217.945721 
L 389.7216 -198.072313 
L 391.5072 -215.424156 
L 393.2928 -182.752386 
L 395.0784 -221.331586 
L 396.864 -179.551366 
L 398.6496 -203.160325 
L 400.4352 -227.216421 
L 402.2208 -228.216858 
L 404.0064 -217.808724 
L 405.792 -227.642212 
L 407.5776 -210.984744 
L 409.3632 -212.287973 
L 411.1488 -184.326949 
L 412.9344 -225.677594 
L 414.72 -211.658394 
L 414.72 -251.932959 
L 414.72 -251.932959 
L 412.9344 -255.216175 
L 411.1488 -243.468704 
L 409.3632 -252.890863 
L 407.5776 -254.706107 
L 405.792 -255.416783 
L 404.0064 -258.225223 
L 402.2208 -254.031099 
L 400.4352 -254.472 
L 398.6496 -247.762464 
L 396.864 -258.742773 
L 395.0784 -244.953969 
L 393.2928 -256.033222 
L 391.5072 -242.420628 
L 389.7216 -252.233854 
L 387.936 -255.337333 
L 386.1504 -252.427292 
L 384.3648 -248.188267 
L 382.5792 -247.995187 
L 380.7936 -255.962442 
L 379.008 -247.161561 
L 377.2224 -245.875223 
L 375.4368 -252.914197 
L 373.6512 -250.447027 
L 371.8656 -248.894859 
L 370.08 -250.307285 
L 368.2944 -250.282953 
L 366.5088 -251.901946 
L 364.7232 -257.501785 
L 362.9376 -246.016413 
L 361.152 -246.887531 
L 359.3664 -247.346233 
L 357.5808 -257.103472 
L 355.7952 -245.314123 
L 354.0096 -249.190742 
L 352.224 -249.588704 
L 350.4384 -237.185996 
L 348.6528 -244.227528 
L 346.8672 -249.474091 
L 345.0816 -240.161064 
L 343.296 -248.80188 
L 341.5104 -240.436395 
L 339.7248 -241.626434 
L 337.9392 -247.855384 
L 336.1536 -247.604814 
L 334.368 -249.011738 
L 332.5824 -247.604395 
L 330.7968 -239.615142 
L 329.0112 -246.532298 
L 327.2256 -233.965046 
L 325.44 -243.160629 
L 323.6544 -232.941937 
L 321.8688 -246.374215 
L 320.0832 -245.66346 
L 318.2976 -246.459402 
L 316.512 -234.2302 
L 314.7264 -233.912434 
L 312.9408 -233.166663 
L 311.1552 -242.973996 
L 309.3696 -240.523542 
L 307.584 -251.780848 
L 305.7984 -243.279329 
L 304.0128 -233.644304 
L 302.2272 -226.158735 
L 300.4416 -232.019188 
L 298.656 -226.94522 
L 296.8704 -233.77949 
L 295.0848 -249.221728 
L 293.2992 -246.516759 
L 291.5136 -241.856673 
L 289.728 -238.422595 
L 287.9424 -238.808885 
L 286.1568 -243.882818 
L 284.3712 -239.825926 
L 282.5856 -236.635923 
L 280.8 -226.555722 
L 279.0144 -236.035139 
L 277.2288 -243.540191 
L 275.4432 -251.42499 
L 273.6576 -241.238722 
L 271.872 -228.685278 
L 270.0864 -242.526404 
L 268.3008 -237.848977 
L 266.5152 -233.56871 
L 264.7296 -235.680556 
L 262.944 -246.38335 
L 261.1584 -239.483957 
L 259.3728 -230.730618 
L 257.5872 -232.879515 
L 255.8016 -227.6394 
L 254.016 -229.537639 
L 252.2304 -230.085472 
L 250.4448 -232.858815 
L 248.6592 -239.280243 
L 246.8736 -249.109618 
L 245.088 -237.270595 
L 243.3024 -235.004118 
L 241.5168 -249.377731 
L 239.7312 -242.38666 
L 237.9456 -238.419069 
L 236.16 -230.853745 
L 234.3744 -241.423891 
L 232.5888 -234.656705 
L 230.8032 -228.613856 
L 229.0176 -234.10644 
L 227.232 -227.977233 
L 225.4464 -240.451784 
L 223.6608 -244.196298 
L 221.8752 -239.262329 
L 220.0896 -232.78562 
L 218.304 -249.113099 
L 216.5184 -230.889696 
L 214.7328 -238.897853 
L 212.9472 -245.321203 
L 211.1616 -232.013356 
L 209.376 -227.968462 
L 207.5904 -236.327575 
L 205.8048 -226.259154 
L 204.0192 -238.928343 
L 202.2336 -227.855968 
L 200.448 -238.827824 
L 198.6624 -232.548576 
L 196.8768 -246.488426 
L 195.0912 -233.816539 
L 193.3056 -241.942302 
L 191.52 -230.297373 
L 189.7344 -230.595619 
L 187.9488 -228.551797 
L 186.1632 -228.989657 
L 184.3776 -244.844636 
L 182.592 -248.515423 
L 180.8064 -246.737277 
L 179.0208 -233.821641 
L 177.2352 -242.103169 
L 175.4496 -228.342589 
L 173.664 -233.418089 
L 171.8784 -249.666293 
L 170.0928 -250.419143 
L 168.3072 -230.752005 
L 166.5216 -249.254266 
L 164.736 -232.614741 
L 162.9504 -223.253691 
L 161.1648 -239.046342 
L 159.3792 -250.058178 
L 157.5936 -228.499858 
L 155.808 -241.095901 
L 154.0224 -215.052673 
L 152.2368 -233.934056 
L 150.4512 -236.562252 
L 148.6656 -245.868664 
L 146.88 -224.632243 
L 145.0944 -245.337096 
L 143.3088 -229.172849 
L 141.5232 -225.764697 
L 139.7376 -234.19304 
L 137.952 -255.55429 
L 136.1664 -223.218527 
L 134.3808 -238.12862 
L 132.5952 -221.814969 
L 130.8096 -236.482513 
L 129.024 -235.653403 
L 127.2384 -245.474663 
L 125.4528 -235.312757 
L 123.6672 -230.267836 
L 121.8816 -219.402161 
L 120.096 -231.573438 
L 118.3104 -219.2956 
L 116.5248 -226.022184 
L 114.7392 -247.242797 
L 112.9536 -226.79764 
L 111.168 -238.416374 
L 109.3824 -232.912426 
L 107.5968 -242.061016 
L 105.8112 -222.231956 
L 104.0256 -231.122067 
L 102.24 -216.999552 
L 100.4544 -222.101562 
L 98.6688 -235.585195 
L 96.8832 -221.295646 
L 95.0976 -230.481115 
L 93.312 -222.032286 
L 91.5264 -227.805142 
L 89.7408 -221.21217 
L 87.9552 -232.390284 
L 86.1696 -231.540195 
L 84.384 -234.117471 
L 82.5984 -226.693715 
L 80.8128 -243.217178 
L 79.0272 -236.8997 
L 77.2416 -234.675926 
L 75.456 -205.698873 
L 73.6704 -213.799615 
L 71.8848 -219.894515 
L 70.0992 -221.58052 
L 68.3136 -215.274163 
L 66.528 -224.626504 
L 64.7424 -220.899148 
L 62.9568 -228.923667 
L 61.1712 -229.075572 
L 59.3856 -216.567058 
z
" style="stroke: #2ca02c; stroke-opacity: 0.2"/>
    </defs>
    <g clip-path="url(#p3358ec85b6)">
     <use xlink:href="#md6fc54cb86" x="0" y="345.6" style="fill: #2ca02c; fill-opacity: 0.2; stroke: #2ca02c; stroke-opacity: 0.2"/>
    </g>
   </g>
   <g id="PolyCollection_4">
    <path d="M 71.8848 133.536718 
L 71.8848 142.26864 
L 86.1696 172.647789 
L 100.4544 179.904318 
L 114.7392 195.868513 
L 129.024 174.62397 
L 143.3088 202.498868 
L 157.5936 172.622087 
L 171.8784 182.55501 
L 186.1632 130.983727 
L 200.448 141.087808 
L 214.7328 138.192192 
L 229.0176 120.241934 
L 243.3024 117.115575 
L 257.5872 125.472522 
L 271.872 120.132769 
L 286.1568 108.439369 
L 300.4416 100.951433 
L 314.7264 94.161772 
L 329.0112 94.064332 
L 343.296 92.58656 
L 357.5808 93.174781 
L 371.8656 94.348706 
L 386.1504 89.516396 
L 400.4352 88.633442 
L 414.72 86.748595 
L 429.0048 92.461475 
L 443.2896 89.417388 
L 457.5744 82.38209 
L 471.8592 92.23135 
L 486.144 79.080524 
L 500.4288 84.959479 
L 514.7136 77.354088 
L 528.9984 92.099822 
L 543.2832 72.602901 
L 557.568 73.284884 
L 571.8528 72.638865 
L 586.1376 71.847677 
L 600.4224 75.529254 
L 614.7072 71.359228 
L 628.992 70.99245 
L 643.2768 70.368884 
L 657.5616 69.220358 
L 671.8464 72.696783 
L 686.1312 67.803359 
L 700.416 67.590715 
L 714.7008 68.631247 
L 728.9856 68.342305 
L 743.2704 67.194148 
L 757.5552 73.358802 
L 771.84 66.709776 
L 786.1248 66.264724 
L 800.4096 65.980418 
L 814.6944 65.363692 
L 828.9792 65.206487 
L 843.264 64.942798 
L 857.5488 64.674313 
L 871.8336 64.362323 
L 886.1184 64.168229 
L 900.4032 64.057495 
L 914.688 63.976183 
L 928.9728 63.93309 
L 943.2576 63.650895 
L 943.2576 54.475247 
L 943.2576 54.475247 
L 928.9728 54.516162 
L 914.688 54.522495 
L 900.4032 54.494491 
L 886.1184 54.672037 
L 871.8336 54.598764 
L 857.5488 54.664207 
L 843.264 54.739098 
L 828.9792 54.698568 
L 814.6944 54.772756 
L 800.4096 54.899117 
L 786.1248 55.057069 
L 771.84 55.075058 
L 757.5552 53.568 
L 743.2704 54.921593 
L 728.9856 54.972015 
L 714.7008 55.322591 
L 700.416 55.243455 
L 686.1312 55.331814 
L 671.8464 54.820923 
L 657.5616 55.642908 
L 643.2768 55.658433 
L 628.992 56.003397 
L 614.7072 56.004499 
L 600.4224 56.26314 
L 586.1376 56.275035 
L 571.8528 56.525218 
L 557.568 56.798673 
L 543.2832 56.696513 
L 528.9984 53.608554 
L 514.7136 57.260092 
L 500.4288 56.225613 
L 486.144 57.996811 
L 471.8592 57.798497 
L 457.5744 59.159066 
L 443.2896 58.492621 
L 429.0048 59.310434 
L 414.72 60.746168 
L 400.4352 61.12634 
L 386.1504 61.914045 
L 371.8656 64.769658 
L 357.5808 65.82732 
L 343.296 63.041238 
L 329.0112 65.198213 
L 314.7264 65.995463 
L 300.4416 69.743733 
L 286.1568 72.950218 
L 271.872 78.798039 
L 257.5872 88.480544 
L 243.3024 82.328628 
L 229.0176 85.349067 
L 214.7328 87.174161 
L 200.448 91.470981 
L 186.1632 86.416953 
L 171.8784 78.996589 
L 157.5936 86.129599 
L 143.3088 111.503054 
L 129.024 114.894172 
L 114.7392 132.529752 
L 100.4544 129.987595 
L 86.1696 131.045142 
L 71.8848 133.536718 
z
" clip-path="url(#p3358ec85b6)" style="fill: #d62728; fill-opacity: 0.2; stroke: #d62728; stroke-opacity: 0.2"/>
   </g>
   <g id="matplotlib.axis_1">
    <g id="xtick_1">
     <g id="line2d_1">
      <path d="M 57.6 307.584 
L 57.6 41.472 
" clip-path="url(#p3358ec85b6)" style="fill: none; stroke: #b0b0b0; stroke-width: 0.8; stroke-linecap: square"/>
     </g>
     <g id="line2d_2">
      <defs>
       <path id="m3e7c6ac6b1" d="M 0 0 
L 0 3.5 
" style="stroke: #000000; stroke-width: 0.8"/>
      </defs>
      <g>
       <use xlink:href="#m3e7c6ac6b1" x="57.6" y="307.584" style="stroke: #000000; stroke-width: 0.8"/>
      </g>
     </g>
     <g id="text_1">
      <!-- 0.00 -->
      <g transform="translate(46.467188 322.182437)scale(0.1 -0.1)">
       <defs>
        <path id="DejaVuSans-30" d="M 2034 4250 
Q 1547 4250 1301 3770 
Q 1056 3291 1056 2328 
Q 1056 1369 1301 889 
Q 1547 409 2034 409 
Q 2525 409 2770 889 
Q 3016 1369 3016 2328 
Q 3016 3291 2770 3770 
Q 2525 4250 2034 4250 
z
M 2034 4750 
Q 2819 4750 3233 4129 
Q 3647 3509 3647 2328 
Q 3647 1150 3233 529 
Q 2819 -91 2034 -91 
Q 1250 -91 836 529 
Q 422 1150 422 2328 
Q 422 3509 836 4129 
Q 1250 4750 2034 4750 
z
" transform="scale(0.015625)"/>
        <path id="DejaVuSans-2e" d="M 684 794 
L 1344 794 
L 1344 0 
L 684 0 
L 684 794 
z
" transform="scale(0.015625)"/>
       </defs>
       <use xlink:href="#DejaVuSans-30"/>
       <use xlink:href="#DejaVuSans-2e" x="63.623047"/>
       <use xlink:href="#DejaVuSans-30" x="95.410156"/>
       <use xlink:href="#DejaVuSans-30" x="159.033203"/>
      </g>
     </g>
    </g>
    <g id="xtick_2">
     <g id="line2d_3">
      <path d="M 102.24 307.584 
L 102.24 41.472 
" clip-path="url(#p3358ec85b6)" style="fill: none; stroke: #b0b0b0; stroke-width: 0.8; stroke-linecap: square"/>
     </g>
     <g id="line2d_4">
      <g>
       <use xlink:href="#m3e7c6ac6b1" x="102.24" y="307.584" style="stroke: #000000; stroke-width: 0.8"/>
      </g>
     </g>
     <g id="text_2">
      <!-- 0.25 -->
      <g transform="translate(91.107188 322.182437)scale(0.1 -0.1)">
       <defs>
        <path id="DejaVuSans-32" d="M 1228 531 
L 3431 531 
L 3431 0 
L 469 0 
L 469 531 
Q 828 903 1448 1529 
Q 2069 2156 2228 2338 
Q 2531 2678 2651 2914 
Q 2772 3150 2772 3378 
Q 2772 3750 2511 3984 
Q 2250 4219 1831 4219 
Q 1534 4219 1204 4116 
Q 875 4013 500 3803 
L 500 4441 
Q 881 4594 1212 4672 
Q 1544 4750 1819 4750 
Q 2544 4750 2975 4387 
Q 3406 4025 3406 3419 
Q 3406 3131 3298 2873 
Q 3191 2616 2906 2266 
Q 2828 2175 2409 1742 
Q 1991 1309 1228 531 
z
" transform="scale(0.015625)"/>
        <path id="DejaVuSans-35" d="M 691 4666 
L 3169 4666 
L 3169 4134 
L 1269 4134 
L 1269 2991 
Q 1406 3038 1543 3061 
Q 1681 3084 1819 3084 
Q 2600 3084 3056 2656 
Q 3513 2228 3513 1497 
Q 3513 744 3044 326 
Q 2575 -91 1722 -91 
Q 1428 -91 1123 -41 
Q 819 9 494 109 
L 494 744 
Q 775 591 1075 516 
Q 1375 441 1709 441 
Q 2250 441 2565 725 
Q 2881 1009 2881 1497 
Q 2881 1984 2565 2268 
Q 2250 2553 1709 2553 
Q 1456 2553 1204 2497 
Q 953 2441 691 2322 
L 691 4666 
z
" transform="scale(0.015625)"/>
       </defs>
       <use xlink:href="#DejaVuSans-30"/>
       <use xlink:href="#DejaVuSans-2e" x="63.623047"/>
       <use xlink:href="#DejaVuSans-32" x="95.410156"/>
       <use xlink:href="#DejaVuSans-35" x="159.033203"/>
      </g>
     </g>
    </g>
    <g id="xtick_3">
     <g id="line2d_5">
      <path d="M 146.88 307.584 
L 146.88 41.472 
" clip-path="url(#p3358ec85b6)" style="fill: none; stroke: #b0b0b0; stroke-width: 0.8; stroke-linecap: square"/>
     </g>
     <g id="line2d_6">
      <g>
       <use xlink:href="#m3e7c6ac6b1" x="146.88" y="307.584" style="stroke: #000000; stroke-width: 0.8"/>
      </g>
     </g>
     <g id="text_3">
      <!-- 0.50 -->
      <g transform="translate(135.747187 322.182437)scale(0.1 -0.1)">
       <use xlink:href="#DejaVuSans-30"/>
       <use xlink:href="#DejaVuSans-2e" x="63.623047"/>
       <use xlink:href="#DejaVuSans-35" x="95.410156"/>
       <use xlink:href="#DejaVuSans-30" x="159.033203"/>
      </g>
     </g>
    </g>
    <g id="xtick_4">
     <g id="line2d_7">
      <path d="M 191.52 307.584 
L 191.52 41.472 
" clip-path="url(#p3358ec85b6)" style="fill: none; stroke: #b0b0b0; stroke-width: 0.8; stroke-linecap: square"/>
     </g>
     <g id="line2d_8">
      <g>
       <use xlink:href="#m3e7c6ac6b1" x="191.52" y="307.584" style="stroke: #000000; stroke-width: 0.8"/>
      </g>
     </g>
     <g id="text_4">
      <!-- 0.75 -->
      <g transform="translate(180.387187 322.182437)scale(0.1 -0.1)">
       <defs>
        <path id="DejaVuSans-37" d="M 525 4666 
L 3525 4666 
L 3525 4397 
L 1831 0 
L 1172 0 
L 2766 4134 
L 525 4134 
L 525 4666 
z
" transform="scale(0.015625)"/>
       </defs>
       <use xlink:href="#DejaVuSans-30"/>
       <use xlink:href="#DejaVuSans-2e" x="63.623047"/>
       <use xlink:href="#DejaVuSans-37" x="95.410156"/>
       <use xlink:href="#DejaVuSans-35" x="159.033203"/>
      </g>
     </g>
    </g>
    <g id="xtick_5">
     <g id="line2d_9">
      <path d="M 236.16 307.584 
L 236.16 41.472 
" clip-path="url(#p3358ec85b6)" style="fill: none; stroke: #b0b0b0; stroke-width: 0.8; stroke-linecap: square"/>
     </g>
     <g id="line2d_10">
      <g>
       <use xlink:href="#m3e7c6ac6b1" x="236.16" y="307.584" style="stroke: #000000; stroke-width: 0.8"/>
      </g>
     </g>
     <g id="text_5">
      <!-- 1.00 -->
      <g transform="translate(225.027187 322.182437)scale(0.1 -0.1)">
       <defs>
        <path id="DejaVuSans-31" d="M 794 531 
L 1825 531 
L 1825 4091 
L 703 3866 
L 703 4441 
L 1819 4666 
L 2450 4666 
L 2450 531 
L 3481 531 
L 3481 0 
L 794 0 
L 794 531 
z
" transform="scale(0.015625)"/>
       </defs>
       <use xlink:href="#DejaVuSans-31"/>
       <use xlink:href="#DejaVuSans-2e" x="63.623047"/>
       <use xlink:href="#DejaVuSans-30" x="95.410156"/>
       <use xlink:href="#DejaVuSans-30" x="159.033203"/>
      </g>
     </g>
    </g>
    <g id="xtick_6">
     <g id="line2d_11">
      <path d="M 280.8 307.584 
L 280.8 41.472 
" clip-path="url(#p3358ec85b6)" style="fill: none; stroke: #b0b0b0; stroke-width: 0.8; stroke-linecap: square"/>
     </g>
     <g id="line2d_12">
      <g>
       <use xlink:href="#m3e7c6ac6b1" x="280.8" y="307.584" style="stroke: #000000; stroke-width: 0.8"/>
      </g>
     </g>
     <g id="text_6">
      <!-- 1.25 -->
      <g transform="translate(269.667188 322.182437)scale(0.1 -0.1)">
       <use xlink:href="#DejaVuSans-31"/>
       <use xlink:href="#DejaVuSans-2e" x="63.623047"/>
       <use xlink:href="#DejaVuSans-32" x="95.410156"/>
       <use xlink:href="#DejaVuSans-35" x="159.033203"/>
      </g>
     </g>
    </g>
    <g id="xtick_7">
     <g id="line2d_13">
      <path d="M 325.44 307.584 
L 325.44 41.472 
" clip-path="url(#p3358ec85b6)" style="fill: none; stroke: #b0b0b0; stroke-width: 0.8; stroke-linecap: square"/>
     </g>
     <g id="line2d_14">
      <g>
       <use xlink:href="#m3e7c6ac6b1" x="325.44" y="307.584" style="stroke: #000000; stroke-width: 0.8"/>
      </g>
     </g>
     <g id="text_7">
      <!-- 1.50 -->
      <g transform="translate(314.307187 322.182437)scale(0.1 -0.1)">
       <use xlink:href="#DejaVuSans-31"/>
       <use xlink:href="#DejaVuSans-2e" x="63.623047"/>
       <use xlink:href="#DejaVuSans-35" x="95.410156"/>
       <use xlink:href="#DejaVuSans-30" x="159.033203"/>
      </g>
     </g>
    </g>
    <g id="xtick_8">
     <g id="line2d_15">
      <path d="M 370.08 307.584 
L 370.08 41.472 
" clip-path="url(#p3358ec85b6)" style="fill: none; stroke: #b0b0b0; stroke-width: 0.8; stroke-linecap: square"/>
     </g>
     <g id="line2d_16">
      <g>
       <use xlink:href="#m3e7c6ac6b1" x="370.08" y="307.584" style="stroke: #000000; stroke-width: 0.8"/>
      </g>
     </g>
     <g id="text_8">
      <!-- 1.75 -->
      <g transform="translate(358.947188 322.182437)scale(0.1 -0.1)">
       <use xlink:href="#DejaVuSans-31"/>
       <use xlink:href="#DejaVuSans-2e" x="63.623047"/>
       <use xlink:href="#DejaVuSans-37" x="95.410156"/>
       <use xlink:href="#DejaVuSans-35" x="159.033203"/>
      </g>
     </g>
    </g>
    <g id="xtick_9">
     <g id="line2d_17">
      <path d="M 414.72 307.584 
L 414.72 41.472 
" clip-path="url(#p3358ec85b6)" style="fill: none; stroke: #b0b0b0; stroke-width: 0.8; stroke-linecap: square"/>
     </g>
     <g id="line2d_18">
      <g>
       <use xlink:href="#m3e7c6ac6b1" x="414.72" y="307.584" style="stroke: #000000; stroke-width: 0.8"/>
      </g>
     </g>
     <g id="text_9">
      <!-- 2.00 -->
      <g transform="translate(403.587188 322.182437)scale(0.1 -0.1)">
       <use xlink:href="#DejaVuSans-32"/>
       <use xlink:href="#DejaVuSans-2e" x="63.623047"/>
       <use xlink:href="#DejaVuSans-30" x="95.410156"/>
       <use xlink:href="#DejaVuSans-30" x="159.033203"/>
      </g>
     </g>
    </g>
    <g id="text_10">
     <!-- step -->
     <g transform="translate(225.344375 335.860562)scale(0.1 -0.1)">
      <defs>
       <path id="DejaVuSans-73" d="M 2834 3397 
L 2834 2853 
Q 2591 2978 2328 3040 
Q 2066 3103 1784 3103 
Q 1356 3103 1142 2972 
Q 928 2841 928 2578 
Q 928 2378 1081 2264 
Q 1234 2150 1697 2047 
L 1894 2003 
Q 2506 1872 2764 1633 
Q 3022 1394 3022 966 
Q 3022 478 2636 193 
Q 2250 -91 1575 -91 
Q 1294 -91 989 -36 
Q 684 19 347 128 
L 347 722 
Q 666 556 975 473 
Q 1284 391 1588 391 
Q 1994 391 2212 530 
Q 2431 669 2431 922 
Q 2431 1156 2273 1281 
Q 2116 1406 1581 1522 
L 1381 1569 
Q 847 1681 609 1914 
Q 372 2147 372 2553 
Q 372 3047 722 3315 
Q 1072 3584 1716 3584 
Q 2034 3584 2315 3537 
Q 2597 3491 2834 3397 
z
" transform="scale(0.015625)"/>
       <path id="DejaVuSans-74" d="M 1172 4494 
L 1172 3500 
L 2356 3500 
L 2356 3053 
L 1172 3053 
L 1172 1153 
Q 1172 725 1289 603 
Q 1406 481 1766 481 
L 2356 481 
L 2356 0 
L 1766 0 
Q 1100 0 847 248 
Q 594 497 594 1153 
L 594 3053 
L 172 3053 
L 172 3500 
L 594 3500 
L 594 4494 
L 1172 4494 
z
" transform="scale(0.015625)"/>
       <path id="DejaVuSans-65" d="M 3597 1894 
L 3597 1613 
L 953 1613 
Q 991 1019 1311 708 
Q 1631 397 2203 397 
Q 2534 397 2845 478 
Q 3156 559 3463 722 
L 3463 178 
Q 3153 47 2828 -22 
Q 2503 -91 2169 -91 
Q 1331 -91 842 396 
Q 353 884 353 1716 
Q 353 2575 817 3079 
Q 1281 3584 2069 3584 
Q 2775 3584 3186 3129 
Q 3597 2675 3597 1894 
z
M 3022 2063 
Q 3016 2534 2758 2815 
Q 2500 3097 2075 3097 
Q 1594 3097 1305 2825 
Q 1016 2553 972 2059 
L 3022 2063 
z
" transform="scale(0.015625)"/>
       <path id="DejaVuSans-70" d="M 1159 525 
L 1159 -1331 
L 581 -1331 
L 581 3500 
L 1159 3500 
L 1159 2969 
Q 1341 3281 1617 3432 
Q 1894 3584 2278 3584 
Q 2916 3584 3314 3078 
Q 3713 2572 3713 1747 
Q 3713 922 3314 415 
Q 2916 -91 2278 -91 
Q 1894 -91 1617 61 
Q 1341 213 1159 525 
z
M 3116 1747 
Q 3116 2381 2855 2742 
Q 2594 3103 2138 3103 
Q 1681 3103 1420 2742 
Q 1159 2381 1159 1747 
Q 1159 1113 1420 752 
Q 1681 391 2138 391 
Q 2594 391 2855 752 
Q 3116 1113 3116 1747 
z
" transform="scale(0.015625)"/>
      </defs>
      <use xlink:href="#DejaVuSans-73"/>
      <use xlink:href="#DejaVuSans-74" x="52.099609"/>
      <use xlink:href="#DejaVuSans-65" x="91.308594"/>
      <use xlink:href="#DejaVuSans-70" x="152.832031"/>
     </g>
    </g>
    <g id="text_11">
     <!-- 1e6 -->
     <g transform="translate(395.841875 334.860562)scale(0.1 -0.1)">
      <defs>
       <path id="DejaVuSans-36" d="M 2113 2584 
Q 1688 2584 1439 2293 
Q 1191 2003 1191 1497 
Q 1191 994 1439 701 
Q 1688 409 2113 409 
Q 2538 409 2786 701 
Q 3034 994 3034 1497 
Q 3034 2003 2786 2293 
Q 2538 2584 2113 2584 
z
M 3366 4563 
L 3366 3988 
Q 3128 4100 2886 4159 
Q 2644 4219 2406 4219 
Q 1781 4219 1451 3797 
Q 1122 3375 1075 2522 
Q 1259 2794 1537 2939 
Q 1816 3084 2150 3084 
Q 2853 3084 3261 2657 
Q 3669 2231 3669 1497 
Q 3669 778 3244 343 
Q 2819 -91 2113 -91 
Q 1303 -91 875 529 
Q 447 1150 447 2328 
Q 447 3434 972 4092 
Q 1497 4750 2381 4750 
Q 2619 4750 2861 4703 
Q 3103 4656 3366 4563 
z
" transform="scale(0.015625)"/>
      </defs>
      <use xlink:href="#DejaVuSans-31"/>
      <use xlink:href="#DejaVuSans-65" x="63.623047"/>
      <use xlink:href="#DejaVuSans-36" x="125.146484"/>
     </g>
    </g>
   </g>
   <g id="matplotlib.axis_2">
    <g id="ytick_1">
     <g id="line2d_19">
      <path d="M 57.6 272.495458 
L 414.72 272.495458 
" clip-path="url(#p3358ec85b6)" style="fill: none; stroke: #b0b0b0; stroke-width: 0.8; stroke-linecap: square"/>
     </g>
     <g id="line2d_20">
      <defs>
       <path id="m7a41b825f3" d="M 0 0 
L -3.5 0 
" style="stroke: #000000; stroke-width: 0.8"/>
      </defs>
      <g>
       <use xlink:href="#m7a41b825f3" x="57.6" y="272.495458" style="stroke: #000000; stroke-width: 0.8"/>
      </g>
     </g>
     <g id="text_12">
      <!-- −50000 -->
      <g transform="translate(10.407812 276.294677)scale(0.1 -0.1)">
       <defs>
        <path id="DejaVuSans-2212" d="M 678 2272 
L 4684 2272 
L 4684 1741 
L 678 1741 
L 678 2272 
z
" transform="scale(0.015625)"/>
       </defs>
       <use xlink:href="#DejaVuSans-2212"/>
       <use xlink:href="#DejaVuSans-35" x="83.789062"/>
       <use xlink:href="#DejaVuSans-30" x="147.412109"/>
       <use xlink:href="#DejaVuSans-30" x="211.035156"/>
       <use xlink:href="#DejaVuSans-30" x="274.658203"/>
       <use xlink:href="#DejaVuSans-30" x="338.28125"/>
      </g>
     </g>
    </g>
    <g id="ytick_2">
     <g id="line2d_21">
      <path d="M 57.6 226.967386 
L 414.72 226.967386 
" clip-path="url(#p3358ec85b6)" style="fill: none; stroke: #b0b0b0; stroke-width: 0.8; stroke-linecap: square"/>
     </g>
     <g id="line2d_22">
      <g>
       <use xlink:href="#m7a41b825f3" x="57.6" y="226.967386" style="stroke: #000000; stroke-width: 0.8"/>
      </g>
     </g>
     <g id="text_13">
      <!-- −40000 -->
      <g transform="translate(10.407812 230.766605)scale(0.1 -0.1)">
       <defs>
        <path id="DejaVuSans-34" d="M 2419 4116 
L 825 1625 
L 2419 1625 
L 2419 4116 
z
M 2253 4666 
L 3047 4666 
L 3047 1625 
L 3713 1625 
L 3713 1100 
L 3047 1100 
L 3047 0 
L 2419 0 
L 2419 1100 
L 313 1100 
L 313 1709 
L 2253 4666 
z
" transform="scale(0.015625)"/>
       </defs>
       <use xlink:href="#DejaVuSans-2212"/>
       <use xlink:href="#DejaVuSans-34" x="83.789062"/>
       <use xlink:href="#DejaVuSans-30" x="147.412109"/>
       <use xlink:href="#DejaVuSans-30" x="211.035156"/>
       <use xlink:href="#DejaVuSans-30" x="274.658203"/>
       <use xlink:href="#DejaVuSans-30" x="338.28125"/>
      </g>
     </g>
    </g>
    <g id="ytick_3">
     <g id="line2d_23">
      <path d="M 57.6 181.439314 
L 414.72 181.439314 
" clip-path="url(#p3358ec85b6)" style="fill: none; stroke: #b0b0b0; stroke-width: 0.8; stroke-linecap: square"/>
     </g>
     <g id="line2d_24">
      <g>
       <use xlink:href="#m7a41b825f3" x="57.6" y="181.439314" style="stroke: #000000; stroke-width: 0.8"/>
      </g>
     </g>
     <g id="text_14">
      <!-- −30000 -->
      <g transform="translate(10.407812 185.238533)scale(0.1 -0.1)">
       <defs>
        <path id="DejaVuSans-33" d="M 2597 2516 
Q 3050 2419 3304 2112 
Q 3559 1806 3559 1356 
Q 3559 666 3084 287 
Q 2609 -91 1734 -91 
Q 1441 -91 1130 -33 
Q 819 25 488 141 
L 488 750 
Q 750 597 1062 519 
Q 1375 441 1716 441 
Q 2309 441 2620 675 
Q 2931 909 2931 1356 
Q 2931 1769 2642 2001 
Q 2353 2234 1838 2234 
L 1294 2234 
L 1294 2753 
L 1863 2753 
Q 2328 2753 2575 2939 
Q 2822 3125 2822 3475 
Q 2822 3834 2567 4026 
Q 2313 4219 1838 4219 
Q 1578 4219 1281 4162 
Q 984 4106 628 3988 
L 628 4550 
Q 988 4650 1302 4700 
Q 1616 4750 1894 4750 
Q 2613 4750 3031 4423 
Q 3450 4097 3450 3541 
Q 3450 3153 3228 2886 
Q 3006 2619 2597 2516 
z
" transform="scale(0.015625)"/>
       </defs>
       <use xlink:href="#DejaVuSans-2212"/>
       <use xlink:href="#DejaVuSans-33" x="83.789062"/>
       <use xlink:href="#DejaVuSans-30" x="147.412109"/>
       <use xlink:href="#DejaVuSans-30" x="211.035156"/>
       <use xlink:href="#DejaVuSans-30" x="274.658203"/>
       <use xlink:href="#DejaVuSans-30" x="338.28125"/>
      </g>
     </g>
    </g>
    <g id="ytick_4">
     <g id="line2d_25">
      <path d="M 57.6 135.911242 
L 414.72 135.911242 
" clip-path="url(#p3358ec85b6)" style="fill: none; stroke: #b0b0b0; stroke-width: 0.8; stroke-linecap: square"/>
     </g>
     <g id="line2d_26">
      <g>
       <use xlink:href="#m7a41b825f3" x="57.6" y="135.911242" style="stroke: #000000; stroke-width: 0.8"/>
      </g>
     </g>
     <g id="text_15">
      <!-- −20000 -->
      <g transform="translate(10.407812 139.710461)scale(0.1 -0.1)">
       <use xlink:href="#DejaVuSans-2212"/>
       <use xlink:href="#DejaVuSans-32" x="83.789062"/>
       <use xlink:href="#DejaVuSans-30" x="147.412109"/>
       <use xlink:href="#DejaVuSans-30" x="211.035156"/>
       <use xlink:href="#DejaVuSans-30" x="274.658203"/>
       <use xlink:href="#DejaVuSans-30" x="338.28125"/>
      </g>
     </g>
    </g>
    <g id="ytick_5">
     <g id="line2d_27">
      <path d="M 57.6 90.38317 
L 414.72 90.38317 
" clip-path="url(#p3358ec85b6)" style="fill: none; stroke: #b0b0b0; stroke-width: 0.8; stroke-linecap: square"/>
     </g>
     <g id="line2d_28">
      <g>
       <use xlink:href="#m7a41b825f3" x="57.6" y="90.38317" style="stroke: #000000; stroke-width: 0.8"/>
      </g>
     </g>
     <g id="text_16">
      <!-- −10000 -->
      <g transform="translate(10.407812 94.182389)scale(0.1 -0.1)">
       <use xlink:href="#DejaVuSans-2212"/>
       <use xlink:href="#DejaVuSans-31" x="83.789062"/>
       <use xlink:href="#DejaVuSans-30" x="147.412109"/>
       <use xlink:href="#DejaVuSans-30" x="211.035156"/>
       <use xlink:href="#DejaVuSans-30" x="274.658203"/>
       <use xlink:href="#DejaVuSans-30" x="338.28125"/>
      </g>
     </g>
    </g>
    <g id="ytick_6">
     <g id="line2d_29">
      <path d="M 57.6 44.855098 
L 414.72 44.855098 
" clip-path="url(#p3358ec85b6)" style="fill: none; stroke: #b0b0b0; stroke-width: 0.8; stroke-linecap: square"/>
     </g>
     <g id="line2d_30">
      <g>
       <use xlink:href="#m7a41b825f3" x="57.6" y="44.855098" style="stroke: #000000; stroke-width: 0.8"/>
      </g>
     </g>
     <g id="text_17">
      <!-- 0 -->
      <g transform="translate(44.2375 48.654316)scale(0.1 -0.1)">
       <use xlink:href="#DejaVuSans-30"/>
      </g>
     </g>
    </g>
    <g id="text_18">
     <!-- value -->
     <g transform="translate(4.328125 188.185812)rotate(-90)scale(0.1 -0.1)">
      <defs>
       <path id="DejaVuSans-76" d="M 191 3500 
L 800 3500 
L 1894 563 
L 2988 3500 
L 3597 3500 
L 2284 0 
L 1503 0 
L 191 3500 
z
" transform="scale(0.015625)"/>
       <path id="DejaVuSans-61" d="M 2194 1759 
Q 1497 1759 1228 1600 
Q 959 1441 959 1056 
Q 959 750 1161 570 
Q 1363 391 1709 391 
Q 2188 391 2477 730 
Q 2766 1069 2766 1631 
L 2766 1759 
L 2194 1759 
z
M 3341 1997 
L 3341 0 
L 2766 0 
L 2766 531 
Q 2569 213 2275 61 
Q 1981 -91 1556 -91 
Q 1019 -91 701 211 
Q 384 513 384 1019 
Q 384 1609 779 1909 
Q 1175 2209 1959 2209 
L 2766 2209 
L 2766 2266 
Q 2766 2663 2505 2880 
Q 2244 3097 1772 3097 
Q 1472 3097 1187 3025 
Q 903 2953 641 2809 
L 641 3341 
Q 956 3463 1253 3523 
Q 1550 3584 1831 3584 
Q 2591 3584 2966 3190 
Q 3341 2797 3341 1997 
z
" transform="scale(0.015625)"/>
       <path id="DejaVuSans-6c" d="M 603 4863 
L 1178 4863 
L 1178 0 
L 603 0 
L 603 4863 
z
" transform="scale(0.015625)"/>
       <path id="DejaVuSans-75" d="M 544 1381 
L 544 3500 
L 1119 3500 
L 1119 1403 
Q 1119 906 1312 657 
Q 1506 409 1894 409 
Q 2359 409 2629 706 
Q 2900 1003 2900 1516 
L 2900 3500 
L 3475 3500 
L 3475 0 
L 2900 0 
L 2900 538 
Q 2691 219 2414 64 
Q 2138 -91 1772 -91 
Q 1169 -91 856 284 
Q 544 659 544 1381 
z
M 1991 3584 
L 1991 3584 
z
" transform="scale(0.015625)"/>
      </defs>
      <use xlink:href="#DejaVuSans-76"/>
      <use xlink:href="#DejaVuSans-61" x="59.179688"/>
      <use xlink:href="#DejaVuSans-6c" x="120.458984"/>
      <use xlink:href="#DejaVuSans-75" x="148.242188"/>
      <use xlink:href="#DejaVuSans-65" x="211.621094"/>
     </g>
    </g>
   </g>
   <g id="line2d_31">
    <path d="M 59.3856 146.85529 
L 61.1712 136.948236 
L 62.9568 203.640419 
L 64.7424 144.70505 
L 66.528 156.964552 
L 68.3136 131.266737 
L 70.0992 144.375276 
L 71.8848 147.954418 
L 73.6704 147.309309 
L 75.456 134.892757 
L 77.2416 178.855761 
L 79.0272 169.012076 
L 80.8128 152.630943 
L 82.5984 134.729925 
L 84.384 134.438315 
L 86.1696 148.355918 
L 87.9552 134.404065 
L 89.7408 149.391081 
L 91.5264 154.972764 
L 93.312 137.19476 
L 95.0976 161.894913 
L 96.8832 160.31479 
L 98.6688 141.506604 
L 100.4544 176.31267 
L 102.24 140.30548 
L 104.0256 144.746791 
L 105.8112 137.660497 
L 107.5968 132.059234 
L 109.3824 131.133349 
L 111.168 161.702901 
L 112.9536 130.961619 
L 114.7392 180.101806 
L 116.5248 121.659849 
L 118.3104 123.414674 
L 120.096 182.561434 
L 121.8816 172.975204 
L 123.6672 183.214237 
L 125.4528 155.284326 
L 127.2384 164.893393 
L 129.024 119.882345 
L 130.8096 142.668827 
L 132.5952 145.079837 
L 134.3808 155.788356 
L 136.1664 134.560953 
L 137.952 144.533014 
L 139.7376 165.921619 
L 141.5232 165.616838 
L 143.3088 148.583835 
L 145.0944 144.551697 
L 146.88 131.795207 
L 148.6656 146.501079 
L 150.4512 131.549397 
L 152.2368 158.562243 
L 154.0224 150.377448 
L 155.808 161.00163 
L 157.5936 157.057162 
L 159.3792 162.556798 
L 161.1648 134.81785 
L 162.9504 133.911121 
L 164.736 154.058301 
L 166.5216 157.340938 
L 168.3072 161.662164 
L 170.0928 142.914775 
L 171.8784 126.498626 
L 173.664 189.041456 
L 175.4496 110.420485 
L 177.2352 153.117905 
L 179.0208 143.027668 
L 180.8064 128.66303 
L 182.592 134.453917 
L 184.3776 126.266119 
L 186.1632 163.590318 
L 187.9488 166.964015 
L 189.7344 135.978672 
L 191.52 152.320032 
L 193.3056 114.364391 
L 195.0912 147.530603 
L 196.8768 127.080231 
L 198.6624 135.33287 
L 200.448 170.256194 
L 202.2336 149.40214 
L 204.0192 117.920382 
L 205.8048 146.107608 
L 207.5904 140.448343 
L 209.376 150.340962 
L 211.1616 127.163747 
L 212.9472 131.445779 
L 214.7328 129.492307 
L 216.5184 124.613605 
L 218.304 151.718008 
L 220.0896 132.978413 
L 221.8752 123.747963 
L 223.6608 145.058745 
L 225.4464 128.779047 
L 227.232 142.860521 
L 229.0176 122.39362 
L 230.8032 126.000536 
L 232.5888 154.530608 
L 234.3744 133.87107 
L 236.16 121.175393 
L 237.9456 148.588018 
L 239.7312 135.267315 
L 241.5168 147.541031 
L 243.3024 118.082601 
L 245.088 132.669417 
L 248.6592 149.485531 
L 250.4448 128.959187 
L 252.2304 144.161259 
L 254.016 141.194953 
L 255.8016 144.217762 
L 257.5872 126.241678 
L 259.3728 180.361415 
L 261.1584 137.943166 
L 262.944 154.46379 
L 264.7296 162.93535 
L 266.5152 183.043296 
L 268.3008 118.436661 
L 270.0864 126.937324 
L 271.872 136.387885 
L 273.6576 137.795495 
L 275.4432 122.008716 
L 277.2288 130.208612 
L 279.0144 123.465292 
L 280.8 133.253628 
L 282.5856 169.651704 
L 284.3712 147.710357 
L 286.1568 144.289352 
L 287.9424 163.932467 
L 289.728 133.408661 
L 291.5136 129.921792 
L 293.2992 128.627847 
L 295.0848 178.86158 
L 296.8704 144.805735 
L 298.656 124.861359 
L 300.4416 129.33995 
L 302.2272 146.761192 
L 304.0128 113.089191 
L 305.7984 144.472895 
L 307.584 120.825694 
L 309.3696 133.183129 
L 311.1552 120.399062 
L 312.9408 131.119053 
L 314.7264 129.507587 
L 316.512 130.069491 
L 318.2976 125.274826 
L 320.0832 141.055166 
L 321.8688 128.678501 
L 323.6544 135.184766 
L 325.44 132.498298 
L 327.2256 117.876616 
L 329.0112 132.230609 
L 330.7968 141.340084 
L 332.5824 156.305876 
L 334.368 113.797738 
L 336.1536 139.959489 
L 337.9392 171.27527 
L 339.7248 144.148791 
L 341.5104 137.186542 
L 343.296 118.131561 
L 345.0816 120.82299 
L 346.8672 126.206815 
L 348.6528 138.426207 
L 350.4384 137.133162 
L 352.224 146.817445 
L 354.0096 126.497434 
L 355.7952 149.590715 
L 357.5808 129.668318 
L 359.3664 140.592983 
L 361.152 157.324471 
L 362.9376 126.38517 
L 364.7232 135.797225 
L 366.5088 139.149547 
L 368.2944 134.686202 
L 370.08 131.95679 
L 371.8656 133.344447 
L 373.6512 122.638554 
L 375.4368 160.920913 
L 377.2224 128.441837 
L 379.008 131.453186 
L 380.7936 119.617164 
L 382.5792 134.260776 
L 384.3648 145.489486 
L 386.1504 116.764819 
L 387.936 148.891935 
L 389.7216 140.917018 
L 391.5072 128.208333 
L 393.2928 126.404754 
L 395.0784 130.223519 
L 396.864 140.640474 
L 398.6496 119.591214 
L 400.4352 178.185921 
L 402.2208 134.137949 
L 404.0064 122.753993 
L 405.792 138.90217 
L 407.5776 127.665253 
L 409.3632 147.335153 
L 411.1488 125.55783 
L 412.9344 144.012988 
L 414.72 135.93225 
L 414.72 135.93225 
" clip-path="url(#p3358ec85b6)" style="fill: none; stroke: #1f77b4; stroke-width: 1.5; stroke-linecap: square"/>
   </g>
   <g id="line2d_32">
    <path d="M 59.3856 141.635273 
L 61.1712 136.080571 
L 62.9568 173.579766 
L 64.7424 139.679659 
L 66.528 135.034556 
L 68.3136 151.768578 
L 70.0992 136.705236 
L 71.8848 150.674244 
L 73.6704 151.740451 
L 75.456 134.094233 
L 77.2416 153.085019 
L 79.0272 160.875928 
L 80.8128 133.244168 
L 82.5984 137.668601 
L 84.384 156.413888 
L 86.1696 131.745277 
L 87.9552 150.367583 
L 89.7408 152.055799 
L 91.5264 127.40704 
L 93.312 148.926904 
L 95.0976 132.029783 
L 96.8832 131.492342 
L 98.6688 133.647086 
L 100.4544 132.893228 
L 102.24 132.55333 
L 104.0256 132.771572 
L 105.8112 131.843541 
L 107.5968 142.632501 
L 109.3824 131.601959 
L 111.168 130.317092 
L 112.9536 126.520236 
L 114.7392 131.854611 
L 116.5248 129.399648 
L 118.3104 130.093379 
L 120.096 157.761324 
L 121.8816 127.720836 
L 123.6672 129.140569 
L 125.4528 137.842316 
L 127.2384 121.534346 
L 129.024 128.336962 
L 130.8096 141.38663 
L 132.5952 121.908277 
L 134.3808 132.162905 
L 136.1664 128.734768 
L 137.952 128.614692 
L 139.7376 125.002374 
L 141.5232 133.734043 
L 143.3088 128.010644 
L 146.88 145.702357 
L 148.6656 126.625295 
L 150.4512 136.851353 
L 152.2368 142.939758 
L 154.0224 126.958964 
L 155.808 140.6153 
L 157.5936 127.051845 
L 159.3792 125.543557 
L 161.1648 130.245448 
L 162.9504 126.646382 
L 164.736 124.859417 
L 166.5216 127.070467 
L 168.3072 128.747912 
L 170.0928 133.744004 
L 171.8784 128.901423 
L 173.664 127.38551 
L 175.4496 124.404254 
L 177.2352 124.616716 
L 179.0208 126.655202 
L 180.8064 130.79095 
L 182.592 124.52099 
L 184.3776 125.559631 
L 186.1632 130.101169 
L 187.9488 124.574699 
L 189.7344 126.177165 
L 191.52 122.978012 
L 193.3056 124.420802 
L 195.0912 124.754993 
L 196.8768 124.007575 
L 198.6624 125.714253 
L 200.448 133.7555 
L 202.2336 124.772319 
L 204.0192 123.608398 
L 205.8048 125.426556 
L 207.5904 126.167347 
L 209.376 123.239475 
L 211.1616 131.924418 
L 212.9472 123.122117 
L 214.7328 138.259046 
L 216.5184 123.739977 
L 218.304 127.609859 
L 220.0896 124.101647 
L 221.8752 122.550822 
L 223.6608 124.021803 
L 225.4464 123.314071 
L 229.0176 124.402384 
L 230.8032 124.038596 
L 232.5888 135.019861 
L 234.3744 127.482937 
L 236.16 125.366009 
L 237.9456 124.750741 
L 239.7312 123.939157 
L 241.5168 128.130824 
L 243.3024 122.9485 
L 245.088 122.713203 
L 246.8736 124.638196 
L 248.6592 123.665293 
L 250.4448 123.081302 
L 252.2304 126.760989 
L 254.016 122.765787 
L 255.8016 122.926631 
L 257.5872 124.307653 
L 259.3728 124.059173 
L 261.1584 122.227459 
L 262.944 123.145469 
L 264.7296 123.642146 
L 266.5152 124.336603 
L 268.3008 122.161802 
L 270.0864 126.659995 
L 271.872 121.372399 
L 273.6576 134.481759 
L 275.4432 123.011711 
L 277.2288 123.560612 
L 279.0144 122.917814 
L 280.8 128.150424 
L 282.5856 123.910444 
L 284.3712 122.060503 
L 286.1568 121.192114 
L 287.9424 136.757403 
L 289.728 117.972997 
L 291.5136 122.080541 
L 293.2992 121.769339 
L 295.0848 121.913641 
L 296.8704 125.407552 
L 298.656 122.250343 
L 300.4416 121.861859 
L 302.2272 125.246725 
L 304.0128 119.713842 
L 305.7984 123.073968 
L 307.584 122.356205 
L 309.3696 122.5016 
L 311.1552 122.07955 
L 312.9408 121.17896 
L 314.7264 121.590194 
L 316.512 121.358765 
L 318.2976 121.006926 
L 320.0832 130.759653 
L 321.8688 122.045908 
L 323.6544 138.871511 
L 325.44 120.912077 
L 327.2256 127.526326 
L 329.0112 121.587673 
L 330.7968 122.902866 
L 332.5824 123.461343 
L 334.368 132.48551 
L 336.1536 124.320919 
L 337.9392 120.425745 
L 339.7248 135.831297 
L 341.5104 128.402338 
L 343.296 128.243267 
L 345.0816 122.683619 
L 346.8672 120.553706 
L 348.6528 131.827019 
L 350.4384 128.19887 
L 352.224 120.07281 
L 354.0096 121.192299 
L 357.5808 120.743445 
L 359.3664 126.533634 
L 361.152 121.413301 
L 362.9376 125.567791 
L 364.7232 123.149312 
L 366.5088 150.706536 
L 368.2944 120.467333 
L 370.08 122.098022 
L 371.8656 122.151778 
L 373.6512 120.456522 
L 375.4368 121.42126 
L 377.2224 122.538862 
L 379.008 122.348645 
L 380.7936 119.381006 
L 382.5792 132.906859 
L 384.3648 122.846255 
L 386.1504 118.071307 
L 387.936 120.753794 
L 389.7216 119.52922 
L 393.2928 121.203856 
L 395.0784 121.70286 
L 396.864 120.288362 
L 398.6496 122.961027 
L 400.4352 122.962069 
L 402.2208 122.717583 
L 404.0064 120.840706 
L 405.792 120.592414 
L 407.5776 128.968611 
L 409.3632 136.148572 
L 411.1488 122.186029 
L 412.9344 121.331707 
L 414.72 123.963498 
L 414.72 123.963498 
" clip-path="url(#p3358ec85b6)" style="fill: none; stroke: #ff7f0e; stroke-width: 1.5; stroke-linecap: square"/>
   </g>
   <g id="line2d_33">
    <path d="M 59.3856 133.692288 
L 61.1712 143.591038 
L 62.9568 148.57163 
L 64.7424 179.220616 
L 66.528 128.82774 
L 68.3136 144.250863 
L 70.0992 128.496044 
L 71.8848 132.046203 
L 73.6704 155.273376 
L 75.456 161.97099 
L 77.2416 129.235727 
L 79.0272 136.82172 
L 80.8128 153.613565 
L 82.5984 157.248582 
L 84.384 154.480257 
L 86.1696 126.707605 
L 87.9552 148.188626 
L 89.7408 129.523822 
L 91.5264 143.240215 
L 93.312 130.414602 
L 95.0976 129.960432 
L 96.8832 130.566229 
L 98.6688 125.16688 
L 100.4544 165.791799 
L 102.24 131.103837 
L 104.0256 127.682768 
L 105.8112 166.704962 
L 107.5968 136.98081 
L 109.3824 148.016283 
L 111.168 128.289302 
L 112.9536 131.361517 
L 114.7392 136.389866 
L 116.5248 149.985372 
L 118.3104 156.281492 
L 120.096 171.03221 
L 121.8816 155.858365 
L 123.6672 129.63807 
L 125.4528 136.622952 
L 127.2384 119.116908 
L 129.024 136.635566 
L 130.8096 135.216575 
L 132.5952 128.879532 
L 134.3808 134.529697 
L 136.1664 148.329136 
L 137.952 152.286442 
L 139.7376 127.642211 
L 141.5232 128.098093 
L 143.3088 142.936338 
L 145.0944 134.133924 
L 146.88 141.942855 
L 148.6656 130.541331 
L 150.4512 120.644767 
L 152.2368 125.76754 
L 154.0224 175.345891 
L 155.808 132.355 
L 157.5936 120.485654 
L 159.3792 148.738262 
L 161.1648 122.605311 
L 162.9504 148.096981 
L 164.736 152.295888 
L 166.5216 110.449845 
L 168.3072 119.268907 
L 170.0928 142.746108 
L 171.8784 149.995502 
L 173.664 145.62935 
L 175.4496 148.819076 
L 177.2352 124.96665 
L 180.8064 143.169231 
L 182.592 154.524758 
L 184.3776 145.058391 
L 186.1632 144.816712 
L 187.9488 135.603671 
L 189.7344 124.137226 
L 191.52 128.655738 
L 193.3056 121.612729 
L 195.0912 135.272799 
L 196.8768 115.572324 
L 198.6624 129.435011 
L 200.448 120.950953 
L 202.2336 132.130087 
L 204.0192 154.766725 
L 205.8048 125.388809 
L 207.5904 133.358398 
L 209.376 122.245064 
L 211.1616 127.398857 
L 212.9472 113.080311 
L 214.7328 120.441468 
L 216.5184 129.069297 
L 218.304 109.257882 
L 220.0896 118.025466 
L 221.8752 123.838123 
L 223.6608 126.867668 
L 225.4464 118.875395 
L 227.232 141.912671 
L 229.0176 119.252924 
L 230.8032 119.430964 
L 232.5888 132.75886 
L 234.3744 113.110448 
L 236.16 128.176243 
L 237.9456 116.503935 
L 239.7312 118.003018 
L 241.5168 108.964648 
L 243.3024 117.55855 
L 245.088 120.312664 
L 246.8736 112.668831 
L 248.6592 120.378234 
L 250.4448 125.89948 
L 252.2304 121.699224 
L 254.016 122.274956 
L 257.5872 118.360616 
L 259.3728 119.271199 
L 261.1584 114.211341 
L 262.944 119.749727 
L 264.7296 119.390628 
L 266.5152 121.563363 
L 268.3008 116.373655 
L 270.0864 114.291502 
L 271.872 127.783094 
L 273.6576 115.063899 
L 275.4432 107.173843 
L 277.2288 139.642829 
L 279.0144 136.097247 
L 280.8 137.581463 
L 282.5856 118.543115 
L 284.3712 122.009625 
L 286.1568 113.928475 
L 287.9424 124.620103 
L 289.728 115.951272 
L 291.5136 114.185618 
L 293.2992 110.634578 
L 295.0848 110.572181 
L 296.8704 150.53063 
L 298.656 129.153598 
L 300.4416 124.452759 
L 302.2272 132.350541 
L 304.0128 121.920777 
L 305.7984 118.807481 
L 307.584 108.065032 
L 309.3696 120.950478 
L 311.1552 116.29284 
L 312.9408 126.560329 
L 314.7264 127.448487 
L 316.512 137.324478 
L 318.2976 111.21223 
L 320.0832 112.291743 
L 321.8688 112.611101 
L 323.6544 117.475153 
L 325.44 135.965869 
L 327.2256 115.593568 
L 329.0112 114.692506 
L 330.7968 122.186343 
L 332.5824 110.170861 
L 334.368 114.422452 
L 336.1536 115.071121 
L 337.9392 126.86494 
L 339.7248 117.394064 
L 341.5104 122.324216 
L 343.296 114.881075 
L 345.0816 119.566145 
L 346.8672 114.066337 
L 348.6528 115.085003 
L 350.4384 126.448554 
L 352.224 118.746817 
L 354.0096 110.076211 
L 355.7952 125.518295 
L 357.5808 116.306463 
L 359.3664 119.159692 
L 361.152 116.473611 
L 362.9376 130.212815 
L 364.7232 113.700476 
L 366.5088 106.618345 
L 368.2944 120.190857 
L 370.08 111.994475 
L 371.8656 112.594122 
L 373.6512 118.100643 
L 375.4368 105.093633 
L 377.2224 120.767345 
L 379.008 117.589627 
L 380.7936 110.992771 
L 382.5792 129.504228 
L 384.3648 111.655063 
L 386.1504 108.744558 
L 387.936 108.958473 
L 389.7216 120.446916 
L 391.5072 116.677608 
L 393.2928 126.207196 
L 395.0784 112.457223 
L 396.864 126.45293 
L 398.6496 120.138606 
L 400.4352 104.75579 
L 402.2208 104.476022 
L 404.0064 107.583027 
L 405.792 104.070502 
L 407.5776 112.754574 
L 409.3632 113.010582 
L 411.1488 131.702174 
L 412.9344 105.153115 
L 414.72 113.804324 
L 414.72 113.804324 
" clip-path="url(#p3358ec85b6)" style="fill: none; stroke: #2ca02c; stroke-width: 1.5; stroke-linecap: square"/>
   </g>
   <g id="line2d_34">
    <path d="M 71.8848 137.902679 
L 86.1696 151.846466 
L 100.4544 154.945956 
L 114.7392 164.199133 
L 129.024 144.759071 
L 143.3088 157.000961 
L 157.5936 129.375843 
L 171.8784 130.775799 
L 186.1632 108.70034 
L 200.448 116.279394 
L 214.7328 112.683177 
L 229.0176 102.795501 
L 243.3024 99.722101 
L 257.5872 106.976533 
L 271.872 99.465404 
L 286.1568 90.694793 
L 300.4416 85.347583 
L 314.7264 80.078617 
L 329.0112 79.631273 
L 343.296 77.813899 
L 357.5808 79.50105 
L 371.8656 79.559182 
L 386.1504 75.71522 
L 400.4352 74.879891 
L 414.72 73.747381 
L 429.0048 75.885954 
L 443.2896 73.955004 
L 457.5744 70.770578 
L 461.8 72.026102 
" clip-path="url(#p3358ec85b6)" style="fill: none; stroke: #d62728; stroke-width: 1.5; stroke-linecap: square"/>
   </g>
   <g id="patch_3">
    <path d="M 57.6 307.584 
L 57.6 41.472 
" style="fill: none; stroke: #000000; stroke-width: 0.8; stroke-linejoin: miter; stroke-linecap: square"/>
   </g>
   <g id="patch_4">
    <path d="M 414.72 307.584 
L 414.72 41.472 
" style="fill: none; stroke: #000000; stroke-width: 0.8; stroke-linejoin: miter; stroke-linecap: square"/>
   </g>
   <g id="patch_5">
    <path d="M 57.6 307.584 
L 414.72 307.584 
" style="fill: none; stroke: #000000; stroke-width: 0.8; stroke-linejoin: miter; stroke-linecap: square"/>
   </g>
   <g id="patch_6">
    <path d="M 57.6 41.472 
L 414.72 41.472 
" style="fill: none; stroke: #000000; stroke-width: 0.8; stroke-linejoin: miter; stroke-linecap: square"/>
   </g>
   <g id="legend_1">
    <g id="patch_7">
     <path d="M 64.6 108.1845 
L 125.778125 108.1845 
Q 127.778125 108.1845 127.778125 106.1845 
L 127.778125 48.472 
Q 127.778125 46.472 125.778125 46.472 
L 64.6 46.472 
Q 62.6 46.472 62.6 48.472 
L 62.6 106.1845 
Q 62.6 108.1845 64.6 108.1845 
z
" style="fill: #ffffff; opacity: 0.8; stroke: #cccccc; stroke-linejoin: miter"/>
    </g>
    <g id="line2d_35">
     <path d="M 66.6 54.570438 
L 76.6 54.570438 
L 86.6 54.570438 
" style="fill: none; stroke: #1f77b4; stroke-width: 1.5; stroke-linecap: square"/>
    </g>
    <g id="text_19">
     <!-- DDPG -->
     <g transform="translate(94.6 58.070438)scale(0.1 -0.1)">
      <defs>
       <path id="DejaVuSans-44" d="M 1259 4147 
L 1259 519 
L 2022 519 
Q 2988 519 3436 956 
Q 3884 1394 3884 2338 
Q 3884 3275 3436 3711 
Q 2988 4147 2022 4147 
L 1259 4147 
z
M 628 4666 
L 1925 4666 
Q 3281 4666 3915 4102 
Q 4550 3538 4550 2338 
Q 4550 1131 3912 565 
Q 3275 0 1925 0 
L 628 0 
L 628 4666 
z
" transform="scale(0.015625)"/>
       <path id="DejaVuSans-50" d="M 1259 4147 
L 1259 2394 
L 2053 2394 
Q 2494 2394 2734 2622 
Q 2975 2850 2975 3272 
Q 2975 3691 2734 3919 
Q 2494 4147 2053 4147 
L 1259 4147 
z
M 628 4666 
L 2053 4666 
Q 2838 4666 3239 4311 
Q 3641 3956 3641 3272 
Q 3641 2581 3239 2228 
Q 2838 1875 2053 1875 
L 1259 1875 
L 1259 0 
L 628 0 
L 628 4666 
z
" transform="scale(0.015625)"/>
       <path id="DejaVuSans-47" d="M 3809 666 
L 3809 1919 
L 2778 1919 
L 2778 2438 
L 4434 2438 
L 4434 434 
Q 4069 175 3628 42 
Q 3188 -91 2688 -91 
Q 1594 -91 976 548 
Q 359 1188 359 2328 
Q 359 3472 976 4111 
Q 1594 4750 2688 4750 
Q 3144 4750 3555 4637 
Q 3966 4525 4313 4306 
L 4313 3634 
Q 3963 3931 3569 4081 
Q 3175 4231 2741 4231 
Q 1884 4231 1454 3753 
Q 1025 3275 1025 2328 
Q 1025 1384 1454 906 
Q 1884 428 2741 428 
Q 3075 428 3337 486 
Q 3600 544 3809 666 
z
" transform="scale(0.015625)"/>
      </defs>
      <use xlink:href="#DejaVuSans-44"/>
      <use xlink:href="#DejaVuSans-44" x="77.001953"/>
      <use xlink:href="#DejaVuSans-50" x="154.003906"/>
      <use xlink:href="#DejaVuSans-47" x="214.306641"/>
     </g>
    </g>
    <g id="line2d_36">
     <path d="M 66.6 69.248563 
L 76.6 69.248563 
L 86.6 69.248563 
" style="fill: none; stroke: #ff7f0e; stroke-width: 1.5; stroke-linecap: square"/>
    </g>
    <g id="text_20">
     <!-- TD3 -->
     <g transform="translate(94.6 72.748563)scale(0.1 -0.1)">
      <defs>
       <path id="DejaVuSans-54" d="M -19 4666 
L 3928 4666 
L 3928 4134 
L 2272 4134 
L 2272 0 
L 1638 0 
L 1638 4134 
L -19 4134 
L -19 4666 
z
" transform="scale(0.015625)"/>
      </defs>
      <use xlink:href="#DejaVuSans-54"/>
      <use xlink:href="#DejaVuSans-44" x="61.083984"/>
      <use xlink:href="#DejaVuSans-33" x="138.085938"/>
     </g>
    </g>
    <g id="line2d_37">
     <path d="M 66.6 83.926688 
L 76.6 83.926688 
L 86.6 83.926688 
" style="fill: none; stroke: #2ca02c; stroke-width: 1.5; stroke-linecap: square"/>
    </g>
    <g id="text_21">
     <!-- SAC -->
     <g transform="translate(94.6 87.426688)scale(0.1 -0.1)">
      <defs>
       <path id="DejaVuSans-53" d="M 3425 4513 
L 3425 3897 
Q 3066 4069 2747 4153 
Q 2428 4238 2131 4238 
Q 1616 4238 1336 4038 
Q 1056 3838 1056 3469 
Q 1056 3159 1242 3001 
Q 1428 2844 1947 2747 
L 2328 2669 
Q 3034 2534 3370 2195 
Q 3706 1856 3706 1288 
Q 3706 609 3251 259 
Q 2797 -91 1919 -91 
Q 1588 -91 1214 -16 
Q 841 59 441 206 
L 441 856 
Q 825 641 1194 531 
Q 1563 422 1919 422 
Q 2459 422 2753 634 
Q 3047 847 3047 1241 
Q 3047 1584 2836 1778 
Q 2625 1972 2144 2069 
L 1759 2144 
Q 1053 2284 737 2584 
Q 422 2884 422 3419 
Q 422 4038 858 4394 
Q 1294 4750 2059 4750 
Q 2388 4750 2728 4690 
Q 3069 4631 3425 4513 
z
" transform="scale(0.015625)"/>
       <path id="DejaVuSans-41" d="M 2188 4044 
L 1331 1722 
L 3047 1722 
L 2188 4044 
z
M 1831 4666 
L 2547 4666 
L 4325 0 
L 3669 0 
L 3244 1197 
L 1141 1197 
L 716 0 
L 50 0 
L 1831 4666 
z
" transform="scale(0.015625)"/>
       <path id="DejaVuSans-43" d="M 4122 4306 
L 4122 3641 
Q 3803 3938 3442 4084 
Q 3081 4231 2675 4231 
Q 1875 4231 1450 3742 
Q 1025 3253 1025 2328 
Q 1025 1406 1450 917 
Q 1875 428 2675 428 
Q 3081 428 3442 575 
Q 3803 722 4122 1019 
L 4122 359 
Q 3791 134 3420 21 
Q 3050 -91 2638 -91 
Q 1578 -91 968 557 
Q 359 1206 359 2328 
Q 359 3453 968 4101 
Q 1578 4750 2638 4750 
Q 3056 4750 3426 4639 
Q 3797 4528 4122 4306 
z
" transform="scale(0.015625)"/>
      </defs>
      <use xlink:href="#DejaVuSans-53"/>
      <use xlink:href="#DejaVuSans-41" x="65.351562"/>
      <use xlink:href="#DejaVuSans-43" x="132.009766"/>
     </g>
    </g>
    <g id="line2d_38">
     <path d="M 66.6 98.604813 
L 76.6 98.604813 
L 86.6 98.604813 
" style="fill: none; stroke: #d62728; stroke-width: 1.5; stroke-linecap: square"/>
    </g>
    <g id="text_22">
     <!-- PPO -->
     <g transform="translate(94.6 102.104813)scale(0.1 -0.1)">
      <defs>
       <path id="DejaVuSans-4f" d="M 2522 4238 
Q 1834 4238 1429 3725 
Q 1025 3213 1025 2328 
Q 1025 1447 1429 934 
Q 1834 422 2522 422 
Q 3209 422 3611 934 
Q 4013 1447 4013 2328 
Q 4013 3213 3611 3725 
Q 3209 4238 2522 4238 
z
M 2522 4750 
Q 3503 4750 4090 4092 
Q 4678 3434 4678 2328 
Q 4678 1225 4090 567 
Q 3503 -91 2522 -91 
Q 1538 -91 948 565 
Q 359 1222 359 2328 
Q 359 3434 948 4092 
Q 1538 4750 2522 4750 
z
" transform="scale(0.015625)"/>
      </defs>
      <use xlink:href="#DejaVuSans-50"/>
      <use xlink:href="#DejaVuSans-50" x="60.302734"/>
      <use xlink:href="#DejaVuSans-4f" x="120.605469"/>
     </g>
    </g>
   </g>
  </g>
 </g>
 <defs>
  <clipPath id="p3358ec85b6">
   <rect x="57.6" y="41.472" width="357.12" height="266.112"/>
  </clipPath>
 </defs>
</svg>
